<?xml version="1.0" encoding="UTF-8" standalone="no"?>
<svg
   id="svg"
   version="1.1"
   width="400"
   height="266.650390625"
   viewBox="0, 0, 400,266.650390625"
   sodipodi:docname="image2vector (3) - Copy.svg"
   inkscape:version="1.1.2 (b8e25be833, 2022-02-05)"
   xmlns:inkscape="http://www.inkscape.org/namespaces/inkscape"
   xmlns:sodipodi="http://sodipodi.sourceforge.net/DTD/sodipodi-0.dtd"
   xmlns="http://www.w3.org/2000/svg"
   xmlns:svg="http://www.w3.org/2000/svg">
  <defs
     id="defs9" />
  <sodipodi:namedview
     id="namedview7"
     pagecolor="#ffffff"
     bordercolor="#000000"
     borderopacity="0.25"
     inkscape:pageshadow="2"
     inkscape:pageopacity="0.0"
     inkscape:pagecheckerboard="0"
     showgrid="false"
     inkscape:zoom="2.8876762"
     inkscape:cx="199.98779"
     inkscape:cy="149.60126"
     inkscape:window-width="1920"
     inkscape:window-height="974"
     inkscape:window-x="-11"
     inkscape:window-y="-11"
     inkscape:window-maximized="1"
     inkscape:current-layer="svg" />
  <g
     id="g1068">
    <path
       id="path0"
       d="m 195.167,66.775 c -6.465,0.61 -10.757,1.446 -15.809,3.08 -29.833,9.646 -49.069,39.154 -45.782,70.228 4.269,40.367 43.042,67.545 82.507,57.834 35.648,-8.771 57.53,-45.453 48.421,-81.169 -7.008,-27.48 -30.67,-47.465 -59.087,-49.906 -1.813,-0.156 -8.824,-0.202 -10.25,-0.067 m 0.614,2.421 c 0.948,0.891 -0.273,2.32 -1.283,1.502 -0.453,-0.366 -0.488,-1.082 -0.076,-1.537 0.387,-0.428 0.88,-0.415 1.359,0.035 m 3.552,-0.029 c 0.401,0.4 0.423,0.797 0.074,1.296 -0.347,0.496 -1.478,0.527 -1.734,0.048 -0.624,-1.165 0.738,-2.267 1.66,-1.344 m 3.669,0.135 c 0.725,0.586 0.375,1.698 -0.533,1.698 -0.797,0 -1.136,-0.272 -1.136,-0.913 0,-0.949 0.928,-1.385 1.669,-0.785 m 3.693,0.14 c 0.675,0.612 0.178,1.725 -0.771,1.725 -0.656,0 -0.924,-0.26 -0.924,-0.896 0,-0.961 1.006,-1.452 1.695,-0.829 m -14.183,0.673 c 0.286,0.752 -0.442,1.493 -1.263,1.287 -0.816,-0.205 -1,-1.18 -0.324,-1.712 0.533,-0.419 1.349,-0.201 1.587,0.425 M 210.5,69.833 c 0.422,0.423 0.42,0.679 -0.012,1.228 -0.623,0.792 -1.821,0.414 -1.821,-0.575 0,-0.931 1.147,-1.339 1.833,-0.653 m -21.886,0.696 c 0.481,0.452 0.487,0.759 0.024,1.252 -0.711,0.756 -1.694,0.381 -1.694,-0.647 0,-0.924 0.961,-1.272 1.67,-0.605 m 25.216,-0.114 c 0.805,0.416 0.811,1.32 0.01,1.748 -1.269,0.679 -2.176,-1.087 -0.923,-1.797 0.42,-0.238 0.35,-0.242 0.913,0.049 m -29.319,0.758 c 0.235,0.125 0.322,0.35 0.322,0.827 0,0.934 -1.082,1.394 -1.738,0.738 -0.856,-0.856 0.318,-2.153 1.416,-1.565 m 33.228,0.215 c 1.007,0.736 -0.291,2.208 -1.417,1.606 -0.372,-0.199 -0.454,-1.295 -0.122,-1.627 0.267,-0.267 1.162,-0.255 1.539,0.021 m -36.044,1.054 c 0.642,0.581 0.185,1.725 -0.689,1.725 -0.668,0 -1.062,-0.371 -1.062,-1 0,-0.907 1.064,-1.347 1.751,-0.725 M 221.5,72.5 c 0.681,0.681 0.263,1.667 -0.707,1.667 -0.659,0 -1.126,-0.422 -1.126,-1.017 0,-0.877 1.186,-1.297 1.833,-0.65 m -43.989,1.006 c 0.213,0.114 0.322,0.349 0.322,0.695 0,1.018 -0.978,1.487 -1.666,0.799 -0.882,-0.881 0.214,-2.099 1.344,-1.494 m 47.413,0.57 c 0.225,0.225 0.409,0.528 0.409,0.674 0,0.91 -1.417,1.37 -1.988,0.644 -0.864,-1.099 0.587,-2.31 1.579,-1.318 m -50.345,0.817 c 0.362,0.264 0.416,1.129 0.095,1.515 -0.283,0.34 -1.152,0.331 -1.536,-0.017 -0.879,-0.796 0.476,-2.204 1.441,-1.498 m 53.63,0.482 c 0.778,0.594 0.341,1.798 -0.663,1.827 -0.696,0.02 -1.046,-0.287 -1.046,-0.918 0,-0.935 0.988,-1.46 1.709,-0.909 m -56.35,1.37 c 0.253,0.952 -0.663,1.698 -1.45,1.182 -0.505,-0.331 -0.577,-1.31 -0.117,-1.585 0.593,-0.354 1.423,-0.141 1.567,0.403 m 59.104,0.014 c 0.763,0.535 0.332,1.797 -0.614,1.797 -0.952,0 -1.413,-0.885 -0.84,-1.613 0.394,-0.501 0.909,-0.566 1.454,-0.184 m -25.298,0.297 c 3.868,0.475 0.587,2.697 -8.785,5.949 -0.945,0.328 -1.568,0.638 -1.619,0.806 -0.159,0.528 -1.426,7.368 -1.533,8.275 -0.224,1.909 1.836,2.229 3.718,0.578 0.75,-0.659 0.953,-0.512 0.837,0.609 -0.296,2.872 -2.278,4.642 -5.2,4.642 -2.867,10e-4 -3.491,-0.792 -3.238,-4.109 0.092,-1.211 -0.067,-1.35 -0.686,-0.599 -1.161,1.408 -3.086,1.881 -6.552,1.609 -3.078,-0.241 -3.249,-0.174 -5.002,1.934 -1.601,1.926 -2.502,2.458 -4.161,2.458 -2.104,0 -2.216,-0.242 -0.597,-1.289 0.664,-0.429 2.067,-1.659 3.208,-2.81 2.813,-2.839 4.128,-3.429 7.671,-3.439 4.534,-0.013 6.912,-2.616 7.694,-8.42 0.291,-2.162 0.327,-2.189 5.663,-4.232 1.925,-0.737 3.95,-1.523 4.5,-1.748 1.124,-0.458 1.805,-0.493 4.082,-0.214 m 12.223,1.457 c 0.079,0.405 0.155,1.937 0.169,3.405 l 0.026,2.667 -0.544,1.109 c -0.975,1.985 -2.415,3.093 -5.688,4.377 -1.959,0.769 -1.915,0.72 -2.18,2.476 -0.372,2.48 -1.498,5.027 -2.588,5.857 -2.414,1.84 -7.164,2.423 -9.823,1.205 -1.265,-0.579 -1.061,-1.276 0.374,-1.276 2.221,0 6.661,-2.074 7.713,-3.602 1.54,-2.239 1.527,-3.564 -0.034,-3.564 -3.492,0 -4.572,-5.818 -1.353,-7.291 3.109,-1.424 5.669,-0.214 5.987,2.831 0.128,1.226 0.144,1.232 1.278,0.523 1.308,-0.818 1.716,-1.569 1.94,-3.568 0.246,-2.186 0.574,-2.768 2.563,-4.542 1.824,-1.628 1.955,-1.665 2.16,-0.607 m -49.526,-0.404 c 0.374,0.339 0.396,1.109 0.043,1.462 -0.446,0.446 -1.383,0.341 -1.58,-0.176 -0.431,-1.135 0.678,-2.063 1.537,-1.286 m 65.5,0.5 c 0.346,0.313 0.408,1.221 0.105,1.524 -0.317,0.317 -1.26,0.24 -1.634,-0.133 -0.869,-0.87 0.614,-2.219 1.529,-1.391 m -68.278,1.619 c 0.463,0.707 -0.178,1.671 -0.983,1.477 -0.514,-0.125 -0.934,-0.541 -0.934,-0.926 0,-0.911 1.414,-1.318 1.917,-0.551 m 71.445,0.381 c 0.635,0.575 0.116,1.724 -0.779,1.724 -0.484,0 -1.083,-0.533 -1.083,-0.963 0,-0.895 1.18,-1.378 1.862,-0.761 m -55.12,0.649 c 1.676,0.795 0.993,3.242 -0.905,3.242 -1.337,0 -2.176,-2.007 -1.206,-2.885 0.67,-0.606 1.346,-0.72 2.111,-0.357 m 5.912,0.173 c 1.356,1.142 0.209,3.16 -1.654,2.908 -0.414,-0.056 -1.144,-0.853 -1.258,-1.373 -0.342,-1.557 1.642,-2.603 2.912,-1.535 m 34.887,0.654 c 2.325,4.224 1.372,11.329 -2.05,15.29 -1.305,1.51 -1.413,1.095 -1.396,-5.375 0.015,-6.028 0.299,-7.492 1.969,-10.136 0.573,-0.908 0.88,-0.862 1.477,0.221 m -60.138,0.234 c 0.733,0.81 -0.242,2.04 -1.195,1.509 -0.548,-0.306 -0.666,-0.863 -0.301,-1.421 0.328,-0.501 1.082,-0.545 1.496,-0.088 m 77.396,0.224 c 0.386,0.465 0.407,1.084 0.048,1.443 -0.973,0.973 -2.493,-0.33 -1.572,-1.348 0.318,-0.351 1.263,-0.41 1.524,-0.095 m -80.561,2.052 c 0.577,0.578 0.123,1.738 -0.681,1.738 -0.461,0 -1.057,-0.542 -1.057,-0.963 0,-0.868 1.137,-1.375 1.738,-0.775 m 74.041,0.772 c 3.505,1.727 4.892,5.006 3.969,9.383 -1.633,7.745 -10.715,9.522 -48.498,9.49 -14.47,-0.012 -15.274,-0.101 -19.155,-2.121 -5.744,-2.988 -8.339,-11.538 -4.337,-14.291 4.126,-2.839 8.802,-0.837 8.541,3.657 -0.167,2.894 -1.576,4.14 -5.071,4.485 -2.397,0.237 -0.968,2.414 2.438,3.714 5.562,2.123 16.375,2.511 41,1.471 14.182,-0.598 23.348,-3.897 23.331,-8.396 -0.004,-1.143 -0.216,-1.261 -0.935,-0.521 -1.719,1.769 -5.729,2.189 -7.082,0.741 -1.673,-1.791 -0.328,-6.983 2.097,-8.089 0.842,-0.384 2.347,-0.19 3.702,0.477 m 9.249,-0.425 c 0.945,0.856 -0.403,2.257 -1.441,1.498 -0.361,-0.264 -0.415,-1.128 -0.095,-1.514 0.283,-0.341 1.152,-0.331 1.536,0.016 M 179.267,85.9 c 0.751,0.752 0.783,1.575 0.088,2.271 -1.514,1.514 -3.545,0.214 -2.837,-1.817 0.391,-1.123 1.84,-1.363 2.749,-0.454 m 5.715,0.193 c 0.987,0.831 0.83,2.009 -0.366,2.755 -1.299,0.809 -2.993,-0.651 -2.448,-2.111 0.418,-1.118 1.858,-1.448 2.814,-0.644 m -28.32,0.988 c 0.264,0.136 0.508,0.38 0.544,0.542 0.169,0.773 -0.706,1.567 -1.348,1.224 -0.969,-0.519 -0.798,-1.76 0.275,-2.002 0.028,-0.007 0.266,0.1 0.529,0.236 m 88.383,0.443 c 0.686,0.923 -0.327,2.042 -1.282,1.416 -0.537,-0.352 -0.578,-1.125 -0.086,-1.617 0.437,-0.437 0.949,-0.362 1.368,0.201 m -90.499,2.514 c 0.528,0.611 0,1.462 -0.907,1.462 -0.946,0 -1.291,-1.484 -0.426,-1.828 0.483,-0.192 0.965,-0.06 1.333,0.366 m 93.048,0.179 c 0.86,0.74 0.056,2.022 -1.013,1.615 -0.541,-0.205 -0.816,-0.89 -0.556,-1.385 0.383,-0.727 0.903,-0.803 1.569,-0.23 m 2.495,2.69 c 0.487,0.487 0.381,0.981 -0.3,1.394 -0.722,0.438 -1.358,0.119 -1.426,-0.714 -0.089,-1.084 0.923,-1.483 1.726,-0.68 m -98.227,0.202 c 0.406,0.368 0.385,0.868 -0.058,1.339 -0.647,0.689 -1.637,0.397 -1.637,-0.482 0,-0.987 0.995,-1.49 1.695,-0.857 m 63.801,0.516 c 1.19,0.598 1.629,1.876 1.045,3.038 -0.827,1.647 -3.348,1.824 -4.152,0.293 -1.146,-2.183 0.94,-4.42 3.107,-3.331 m -66.159,1.71 c 0.398,0.214 0.611,1.242 0.328,1.583 -0.275,0.332 -1.148,0.316 -1.527,-0.027 -0.791,-0.716 0.249,-2.064 1.199,-1.556 m 102.626,0.091 c 0.751,0.526 0.266,1.741 -0.696,1.741 -0.837,0 -1.216,-1.052 -0.601,-1.667 0.401,-0.4 0.798,-0.423 1.297,-0.074 m -64.771,2.013 c 1.206,1.085 0.377,3.061 -1.283,3.061 -1.49,0 -2.17,-1.932 -1.068,-3.034 0.59,-0.589 1.713,-0.602 2.351,-0.027 m 57.508,0.415 c 3.631,0.769 5.388,5.23 3.194,8.107 -0.878,1.151 -3.304,1.694 -5.311,1.188 -1.541,-0.388 -2.75,-2.107 -2.75,-3.908 0,-1.625 -0.311,-1.87 -1.441,-1.137 -2.69,1.744 -4.06,8.204 -4.058,19.128 0.005,20.254 0.902,31.328 2.986,36.858 1.461,3.877 3.445,6.082 5.466,6.074 1.127,-0.004 1.187,-0.2 0.356,-1.151 -1.858,-2.123 -1.786,-5.816 0.127,-6.615 2.976,-1.243 7.559,1.115 7.343,3.778 -0.466,5.749 -9.261,7.886 -13.741,3.338 -3.311,-3.361 -4.504,-11.293 -5.052,-33.597 -0.505,-20.508 0.045,-24.675 3.768,-28.564 2.463,-2.573 6.382,-4.078 9.113,-3.499 m 9.328,0.588 c 0.655,0.594 0.156,1.725 -0.761,1.725 -0.863,0 -1.267,-1.248 -0.564,-1.741 0.479,-0.335 0.943,-0.329 1.325,0.016 M 147.8,98.7 c 0.535,0.535 0.045,1.633 -0.729,1.633 -0.431,0 -1.071,-0.525 -1.071,-0.879 0,-0.759 1.265,-1.289 1.8,-0.754 m 14.141,0.15 c 6.659,2.037 7.893,7.274 7.89,33.483 0,5.454 -0.072,10.929 -0.158,12.167 -0.087,1.237 -0.238,4.05 -0.335,6.25 -0.472,10.659 -2.851,15.071 -9.291,17.235 -4.942,1.661 -9.519,-2.583 -7.409,-6.869 2.206,-4.481 7.72,-3.396 8.248,1.623 0.202,1.926 0.229,1.959 1.213,1.492 2.451,-1.163 4.082,-6.641 4.808,-16.148 0.315,-4.12 0.498,-25.263 0.262,-30.166 -0.537,-11.138 -4.058,-18.885 -7.917,-17.418 l -0.456,0.174 0.7,0.759 c 2.782,3.018 1.684,7.226 -1.829,7.009 -4.556,-0.282 -6.554,-2.487 -5.109,-5.64 1.629,-3.556 5.435,-5.159 9.383,-3.951 m 94.254,2.592 c 0.379,0.344 0.391,0.853 0.029,1.253 -0.54,0.597 -1.724,0.197 -1.724,-0.583 0,-0.815 1.068,-1.237 1.695,-0.67 m -110.565,0.484 c 0.726,0.509 0.413,1.741 -0.442,1.741 -0.916,0 -1.336,-1.019 -0.688,-1.667 0.401,-0.401 0.64,-0.417 1.13,-0.074 m 70.109,2.699 c 3.049,4.646 2.849,12.892 -0.473,19.512 -1.084,2.159 -1.113,2.168 -1.965,0.601 -2.145,-3.946 -2.153,-8.611 -0.029,-16.317 1.113,-4.038 1.707,-4.953 2.467,-3.796 m -6.761,1.256 c 2.121,6.658 1.782,16.408 -0.698,20.064 -1.67,2.463 -6.432,3.081 -10.468,1.361 l -0.77,-0.329 -1.396,0.667 c -3.57,1.707 -6.593,1.331 -8.518,-1.058 -0.88,-1.092 -0.92,-1.357 -0.195,-1.294 4.191,0.36 7.664,-0.219 9.032,-1.504 0.384,-0.36 0.39,-0.361 1.169,-0.056 4.177,1.632 5.709,1.542 7.061,-0.416 0.973,-1.408 1.11,-2.265 1.215,-7.566 0.122,-6.184 0.758,-9.328 2.212,-10.937 0.732,-0.811 0.765,-0.786 1.356,1.068 m 20.706,0.952 c 0.725,2.859 -0.235,11.693 -1.443,13.277 -1.143,1.498 -6.929,4.125 -7.43,3.372 -0.093,-0.14 -0.106,-2.401 -0.03,-5.732 0.068,-3.025 0.114,-5.725 0.102,-6 -0.097,-2.299 0.174,-6.083 0.435,-6.083 0.34,0 1.549,1.224 1.9,1.924 0.841,1.675 1.189,7.181 0.648,10.233 -0.234,1.313 -0.222,1.326 0.651,0.735 1.201,-0.812 1.397,-1.406 1.418,-4.309 0.025,-3.234 1.126,-7.415 2.524,-9.582 l 0.269,-0.416 0.362,0.832 c 0.199,0.458 0.466,1.245 0.594,1.749 m 28.108,-2.12 c 0.585,0.452 0.113,1.242 -0.833,1.396 -0.515,0.083 -0.591,0.043 -0.779,-0.41 -0.428,-1.034 0.676,-1.71 1.612,-0.986 m -61.722,0.338 c 2.038,2.672 1.839,14.042 -0.295,16.816 -1.903,2.474 -6.872,2.197 -9.326,-0.52 -1.43,-1.582 -0.919,-2.366 1.134,-1.741 4.842,1.474 6.703,-1.577 6.546,-10.725 -0.049,-2.814 -0.005,-3.017 0.839,-3.923 0.541,-0.579 0.593,-0.575 1.102,0.093 M 144,105 c 0.624,0.624 0.275,1.667 -0.558,1.667 -0.534,0 -1.109,-0.461 -1.109,-0.889 0,-0.972 1.005,-1.44 1.667,-0.778 m 57.811,1.208 c 2.345,7.332 2.404,12.6 0.175,15.703 -2.641,3.678 -4.107,-8.084 -1.911,-15.328 0.684,-2.253 1.106,-2.344 1.736,-0.375 m -17.422,-0.377 c 1.392,1.654 2.056,9.637 0.998,12.002 -0.765,1.712 -2.806,2.827 -5.196,2.84 -1.498,0.008 -2.066,0.437 -3.63,2.744 -0.442,0.652 -2.423,4.876 -2.978,6.349 -0.673,1.79 -0.963,1.783 -1.342,-0.031 -0.726,-3.47 0.366,-7.033 3.196,-10.427 l 1.117,-1.339 0.154,-4.859 c 0.205,-6.452 0.502,-7.726 1.767,-7.577 1.703,0.2 2.056,3.473 1.096,10.155 -0.164,1.143 0.163,2.013 0.731,1.947 0.73,-0.086 1.198,-0.978 1.199,-2.285 0.002,-2.157 0.805,-6.151 1.771,-8.808 0.498,-1.369 0.54,-1.396 1.117,-0.711 m 6.354,1.846 c 1.521,3.733 1.653,6.809 0.393,9.184 -2.535,4.778 -4.246,-2.494 -2.069,-8.796 0.874,-2.53 0.81,-2.515 1.676,-0.388 m 68.724,0.19 c 0.286,0.286 0.246,0.972 -0.076,1.328 -0.598,0.661 -1.724,0.221 -1.724,-0.674 0,-0.613 0.282,-0.854 1,-0.854 0.33,0 0.69,0.09 0.8,0.2 m -117.004,0.226 c 0.413,0.289 0.513,1.197 0.17,1.54 -0.289,0.289 -1.14,0.246 -1.495,-0.075 -0.628,-0.569 -0.162,-1.725 0.695,-1.725 0.143,0 0.426,0.117 0.63,0.26 m 31.163,0.782 c 1.448,2.392 1.222,5.895 -0.641,9.927 l -0.66,1.43 -0.339,-0.339 c -0.31,-0.31 -0.324,-0.427 -0.168,-1.407 0.094,-0.588 0.251,-2.269 0.348,-3.736 0.484,-7.298 0.517,-7.433 1.46,-5.875 m 73.714,0.059 c 2.127,0.632 4.921,3.493 5.66,5.797 0.258,0.806 0.141,1.871 -0.402,3.656 -2.195,7.21 -0.411,11.03 5.151,11.03 h 1.834 l 0.053,0.552 c 0.069,0.714 -0.207,1.031 -0.897,1.031 -3.758,0 -8.473,3.467 -9.345,6.872 -0.565,2.203 -0.205,3.151 1.316,3.464 2.652,0.547 4.572,2.491 5.895,5.967 1.367,3.592 0.231,4.822 -1.644,1.78 -1.388,-2.251 -2.509,-3.078 -4.178,-3.081 -3.745,-0.008 -2.797,4.857 1.383,7.099 2.067,1.109 2.282,2.164 0.382,1.866 -5.636,-0.884 -8.018,-3.462 -8.177,-8.852 -0.231,-7.811 1.417,-11.967 5.943,-14.992 l 0.898,-0.6 -0.754,-0.354 c -3.556,-1.672 -4.323,-5.689 -2.298,-12.026 0.883,-2.759 0.804,-3.855 -0.366,-5.101 -0.973,-1.036 -3.227,-0.131 -4.46,1.791 -1.647,2.565 -1.754,4.015 -1.739,23.561 0.013,17.025 0.073,16.052 -0.879,14.195 -2.841,-5.539 -4.323,-28.737 -2.369,-37.089 1.07,-4.578 5.297,-7.664 8.993,-6.566 m -92.644,1.942 c 2.958,1.734 3.914,6.189 2.357,10.982 -0.499,1.535 -0.609,3.293 -0.247,3.941 0.212,0.38 0.218,0.376 0.991,-0.482 2.194,-2.441 5.436,-1.284 5.449,1.945 0.008,1.961 -1.243,3.024 -3.351,2.846 l -1.228,-0.104 v 0.632 c 0,0.875 0.743,1.988 2.415,3.616 3.944,3.842 2.734,4.936 -5.921,5.354 -4.911,0.237 -11.938,-0.884 -13.223,-2.108 -0.779,-0.743 -0.238,-0.808 8.312,-0.987 6.917,-0.145 7.589,-0.208 8.141,-0.759 0.381,-0.381 0.364,-0.443 -0.394,-1.359 -0.982,-1.187 -1.359,-2.333 -1.346,-4.088 l 0.012,-1.445 -0.997,-0.957 c -1.724,-1.656 -1.933,-2.568 -1.417,-6.192 0.275,-1.941 0.226,-2.253 -0.337,-2.112 -3.093,0.777 -7.451,-2.919 -5.612,-4.758 0.705,-0.705 0.928,-0.643 1.441,0.405 1.287,2.631 4.59,2.178 4.592,-0.629 0.001,-1.015 -0.344,-1.684 -0.992,-1.927 -0.279,-0.104 -0.736,-0.276 -1.016,-0.38 -0.563,-0.211 -0.992,-0.891 -0.992,-1.573 v -0.446 l 1.311,0.075 c 1.021,0.059 1.476,0.173 2.052,0.51 m 105.896,0.198 c 0.366,0.557 0.248,1.115 -0.3,1.42 -0.954,0.532 -1.928,-0.699 -1.195,-1.509 0.413,-0.457 1.167,-0.412 1.495,0.089 m -119.414,0.265 c 0.372,0.2 0.454,1.295 0.122,1.628 -0.283,0.283 -1.061,0.248 -1.371,-0.062 -0.793,-0.793 0.25,-2.1 1.249,-1.566 m 120.6,3.264 c 0.41,0.626 0.034,1.291 -0.776,1.368 -0.654,0.063 -1.002,-0.273 -1.002,-0.97 0,-0.923 1.25,-1.204 1.778,-0.398 m -121.787,0.804 c 0.504,0.537 0.364,1.141 -0.33,1.429 -0.812,0.336 -1.328,0.016 -1.328,-0.824 0,-1.034 0.935,-1.375 1.658,-0.605 m 122.616,2.356 c 0.487,0.743 0.149,1.32 -0.774,1.32 -0.654,0 -0.76,-0.052 -0.898,-0.445 -0.225,-0.638 0.235,-1.305 0.898,-1.305 0.346,0 0.577,0.129 0.774,0.43 m -123.245,1.013 c 0.925,0.838 -0.425,2.241 -1.441,1.498 -0.362,-0.265 -0.416,-1.129 -0.095,-1.515 0.283,-0.341 1.152,-0.331 1.536,0.017 m 123.938,2.257 c 0.58,0.58 0.118,1.634 -0.717,1.634 -0.637,0 -0.916,-0.261 -0.916,-0.855 0,-0.819 1.078,-1.333 1.633,-0.779 m -124.771,1.576 c 0.672,0.608 0.152,1.724 -0.804,1.724 -0.381,0 -1.058,-0.707 -1.058,-1.105 0,-0.73 1.272,-1.152 1.862,-0.619 m 10.679,2.055 c 0.931,1.032 0.433,2.481 -0.943,2.739 -1.072,0.201 -2.222,-0.689 -2.019,-1.562 0.429,-1.845 1.851,-2.41 2.962,-1.177 m 114.255,0.095 c 0.7,0.491 0.272,1.574 -0.622,1.574 -0.587,0 -0.841,-0.285 -0.841,-0.941 0,-0.825 0.735,-1.143 1.463,-0.633 m -83.33,1.635 c 2.472,5.175 5.964,6.553 11.918,4.703 5.963,-1.853 9.845,-1.577 12.862,0.917 0.796,0.658 0.839,0.672 1.66,0.539 3.148,-0.509 6.16,0.281 10.241,2.686 2.976,1.753 4.52,2.147 5.2,1.327 0.247,-0.297 0.123,-0.45 -1.608,-1.969 -3.195,-2.805 -5.992,-5.514 -6.039,-5.849 -0.146,-1.043 2.802,-2.716 5.198,-2.949 0.835,-0.081 2.568,-0.258 3.852,-0.392 5.193,-0.546 6.734,0.146 6.746,3.027 0.016,3.72 -6.011,4.185 -6.636,0.512 l -0.119,-0.696 -1.642,-0.048 c -2.528,-0.074 -2.948,0.536 -1.318,1.913 3.037,2.569 6.753,6.115 7.342,7.009 0.885,1.341 -2.416,3.204 -5.323,3.004 -1.937,-0.133 -3.054,-0.587 -8.848,-3.591 -3.081,-1.597 -4.142,-1.603 -3.46,-0.017 1.119,2.6 -2.257,4.49 -5.742,3.214 -1.787,-0.653 -2.885,-3.62 -1.813,-4.895 0.522,-0.62 0.573,-0.554 -0.771,-1.009 -2.627,-0.891 -5.616,-0.3 -8.19,1.618 -4.938,3.68 -9.153,3.631 -12.817,-0.149 l -0.969,-1 -0.43,0.847 c -0.868,1.714 -6.359,4.753 -7.675,4.249 -1.261,-0.484 -0.523,-2.239 1.748,-4.156 2.221,-1.873 3.593,-4.27 4.86,-8.489 0.435,-1.446 0.709,-2.083 0.898,-2.083 0.027,0 0.421,0.777 0.875,1.727 m -42.271,-0.452 c 0.629,0.57 0.165,1.725 -0.693,1.725 -0.856,0 -1.274,-0.847 -0.83,-1.678 0.217,-0.406 1.096,-0.433 1.523,-0.047 m 7.076,1.391 c 1.061,0 1.443,1.978 0.554,2.867 -1.353,1.353 -3.533,-0.373 -2.634,-2.086 0.286,-0.545 1.134,-0.991 1.614,-0.847 0.122,0.036 0.332,0.066 0.466,0.066 m 118.858,0.593 c 0.427,0.299 0.502,1.091 0.132,1.398 -0.381,0.316 -1.28,0.27 -1.536,-0.08 -0.477,-0.652 -0.023,-1.577 0.775,-1.577 0.142,0 0.426,0.116 0.629,0.259 m -126.101,1.683 c 0.686,0.62 0.177,1.724 -0.795,1.724 -0.909,0 -1.391,-1.032 -0.791,-1.695 0.344,-0.38 1.182,-0.395 1.586,-0.029 m 126.21,1.82 c 0.31,0.31 0.345,1.088 0.062,1.371 -0.331,0.331 -1.251,0.244 -1.522,-0.144 -0.658,-0.939 0.649,-2.038 1.46,-1.227 M 149.267,131.9 c 1.148,1.148 0.355,2.767 -1.355,2.767 -0.882,0 -1.579,-0.736 -1.579,-1.667 0,-1.585 1.781,-2.252 2.934,-1.1 m -11.405,1.042 c 0.667,0.604 0.161,1.725 -0.779,1.725 -0.957,0 -1.41,-1.007 -0.75,-1.667 0.405,-0.405 1.115,-0.432 1.529,-0.058 m 125.982,2.064 c 0.408,0.218 0.437,1.189 0.049,1.577 -0.556,0.556 -1.56,0.012 -1.56,-0.845 0,-0.793 0.733,-1.148 1.511,-0.732 M 137.667,137 c 0.43,0.43 0.421,0.801 -0.029,1.281 -0.656,0.698 -1.805,0.308 -1.805,-0.612 0,-0.946 1.141,-1.362 1.834,-0.669 m 59.645,0.792 c 1.97,3.906 1.69,15.635 -0.393,16.434 -2.287,0.878 -3.547,-11.663 -1.568,-15.605 0.987,-1.965 1.318,-2.105 1.961,-0.829 m 4.984,0.752 c 2.246,5.668 2.808,13.197 1.273,17.029 -2.047,5.107 -8.609,5.69 -13.366,1.188 -1.605,-1.52 -1.577,-1.613 0.306,-1.018 4.943,1.561 8.379,1.031 9.419,-1.453 0.261,-0.624 0.3,-1.394 0.338,-6.54 0.048,-6.576 0.293,-10.024 0.719,-10.143 0.694,-0.194 0.93,-0.025 1.311,0.937 m 61.779,0.097 c 0.342,1.077 -1.469,1.641 -1.941,0.604 -0.247,-0.542 0.041,-1.197 0.565,-1.282 0.504,-0.083 1.252,0.285 1.376,0.678 m -80.908,1.074 c 1.326,0.651 1.603,3.03 0.954,8.202 -0.383,3.05 -0.201,3.549 1.187,3.237 1.576,-0.354 1.902,-0.882 2.351,-3.809 0.187,-1.224 0.424,-2.533 0.526,-2.91 0.101,-0.377 0.246,-1.116 0.32,-1.643 0.16,-1.123 1.118,-3.128 1.491,-3.119 0.326,0.009 1.336,1.376 1.615,2.187 0.38,1.102 -0.392,8.027 -1.061,9.517 -1.007,2.244 -3.532,3.303 -6.097,2.557 -0.507,-0.147 -0.967,-0.267 -1.022,-0.267 -0.056,0 -0.278,0.397 -0.493,0.884 -0.799,1.807 -3.004,3.449 -6.055,4.508 -2.181,0.758 -2.606,0.985 -3.072,1.64 l -0.383,0.537 -0.098,-0.41 c -0.16,-0.67 0.144,-2.181 0.631,-3.138 0.479,-0.942 0.897,-1.249 2.409,-1.773 3.316,-1.148 5.463,-6.986 5.463,-14.855 0,-1.972 0.019,-1.99 1.334,-1.345 m -44.926,1.155 c 0.349,0.499 0.326,0.896 -0.074,1.297 -0.933,0.932 -2.441,-0.387 -1.558,-1.362 0.396,-0.438 1.304,-0.402 1.632,0.065 m 90.971,1.172 c -0.107,1.694 -0.31,2.363 -0.891,2.945 -0.481,0.48 -0.888,0.643 -2.401,0.958 -0.604,0.126 -0.706,0.228 -1.139,1.138 -0.834,1.754 -1.798,2.477 -3.642,2.729 -1.077,0.147 -1.027,0.111 -2.127,1.538 -0.537,0.695 -1.148,0.929 -2.814,1.074 -1.698,0.148 -1.761,0.208 -2.003,1.919 -0.634,4.484 -3.035,5.843 -10.028,5.675 l -1.417,-0.033 2.188,-0.875 c 4.05,-1.617 6.145,-3.123 6.646,-4.78 0.385,-1.271 0.244,-1.604 -0.649,-1.531 -2.934,0.238 -4.566,-3.538 -2.413,-5.582 1.925,-1.828 5.018,-1.021 5.394,1.408 0.284,1.837 0.224,1.708 0.8,1.708 0.807,-0.001 1.528,-0.539 2.15,-1.603 0.557,-0.954 0.564,-0.959 1.781,-1.258 1.991,-0.489 2.814,-1.2 3.435,-2.965 0.325,-0.925 0.446,-1.001 1.596,-1.004 1.575,-0.005 2.587,-0.411 3.728,-1.496 1.648,-1.568 1.907,-1.563 1.806,0.035 m 34.15,0.234 c 0.356,0.322 0.394,0.871 0.089,1.289 -0.332,0.454 -1.292,0.302 -1.603,-0.254 -0.513,-0.92 0.714,-1.759 1.514,-1.035 m -107.612,0.409 c 6.237,0.764 9.893,3.915 9.528,8.211 -0.391,4.581 -4.183,6.988 -9.907,6.286 -1.752,-0.215 -4.558,-1.043 -3.871,-1.143 7.249,-1.052 10.765,-3.286 10.003,-6.356 -1.173,-4.729 -4.319,-5.758 -11.67,-3.817 -4.737,1.25 -6.943,0.561 -4.862,-1.519 1.575,-1.576 5.964,-2.252 10.779,-1.662 m 19.457,1.44 c 1.599,1.643 1.675,5.216 0.175,8.186 -1.318,2.611 -1.611,1.755 -1.302,-3.804 0.139,-2.507 0.253,-4.659 0.253,-4.782 0,-0.367 0.23,-0.262 0.874,0.4 m -36.249,0.166 c 0.522,0.682 0.107,1.542 -0.742,1.542 -1.262,0 -1.681,-1.197 -0.633,-1.805 0.408,-0.236 1.094,-0.105 1.375,0.263 m 123.949,1.246 c 0.735,1.05 -0.478,2.053 -1.436,1.187 -0.598,-0.542 -0.145,-1.557 0.696,-1.557 0.308,0 0.574,0.133 0.74,0.37 m -33.335,2.671 c -0.331,3.866 -0.921,7.342 -1.407,8.296 -0.656,1.286 -3.92,2.461 -7.264,2.616 -2.95,0.136 -3.014,0.013 -0.709,-1.369 3.967,-2.381 5.003,-3.352 5.805,-5.445 1.526,-3.982 1.687,-4.285 2.568,-4.822 0.948,-0.578 1.109,-0.462 1.007,0.724 M 139.5,147.833 c 0.44,0.44 0.421,0.762 -0.076,1.258 -0.886,0.886 -2.215,-0.197 -1.498,-1.221 0.33,-0.471 1.121,-0.49 1.574,-0.037 m 123.029,0.776 c 0.835,0.756 -0.181,2.1 -1.122,1.483 -0.587,-0.384 -0.67,-0.884 -0.227,-1.356 0.441,-0.47 0.92,-0.515 1.349,-0.127 m -110.589,1.163 c 1.416,0.672 1.393,2.628 -0.038,3.307 -1.61,0.764 -3.283,-0.67 -2.731,-2.341 0.36,-1.091 1.597,-1.522 2.769,-0.966 m -11.273,1.895 c 0.533,0.533 0.422,1.105 -0.289,1.479 -0.846,0.446 -1.723,-0.322 -1.385,-1.212 0.254,-0.668 1.133,-0.808 1.674,-0.267 m 120.695,0.442 c 0.663,0.6 0.085,1.706 -0.778,1.489 -0.956,-0.239 -0.935,-1.765 0.024,-1.765 0.247,0 0.586,0.124 0.754,0.276 m -119.399,2.984 c 0.751,0.526 0.266,1.74 -0.695,1.74 -0.753,0 -1.169,-0.916 -0.762,-1.677 0.211,-0.395 0.938,-0.426 1.457,-0.063 m 118.275,0.002 c 0.596,0.596 0.189,1.572 -0.655,1.572 -0.854,0 -1.225,-0.883 -0.641,-1.529 0.339,-0.374 0.945,-0.394 1.296,-0.043 m -1.659,2.631 c 0.691,0.505 0.233,1.774 -0.639,1.774 -0.488,0 -0.94,-0.488 -0.94,-1.014 0,-0.855 0.874,-1.275 1.579,-0.76 M 143.5,158.833 c 0.443,0.443 0.42,0.701 -0.106,1.228 -0.826,0.826 -1.697,0.362 -1.58,-0.841 0.068,-0.692 1.136,-0.937 1.686,-0.387 m 113.827,2.156 c 0.552,1.031 -0.66,2.015 -1.522,1.235 -0.373,-0.337 -0.387,-0.699 -0.046,-1.187 0.342,-0.487 1.317,-0.517 1.568,-0.048 m -30.91,0.858 c 8.015,1.007 13.228,5.826 13.246,12.245 0.016,5.538 -9.644,7.187 -10.839,1.85 -0.762,-3.408 0.888,-5.525 4.662,-5.982 2.318,-0.281 2.308,-0.744 -0.048,-2.279 -5.488,-3.576 -15.508,-4.239 -44.271,-2.93 -16.062,0.731 -24.667,3.69 -24.667,8.483 0,1.14 0.155,1.169 1.063,0.198 1.784,-1.907 6.115,-1.867 7.41,0.068 1.338,2 -0.502,6.869 -2.839,7.514 -1.537,0.423 -4.176,-0.445 -5.743,-1.889 -3.021,-2.784 -2.708,-9.188 0.593,-12.147 3.651,-3.272 13.681,-4.696 37.433,-5.313 6.791,-0.177 22.067,-0.061 24,0.182 m -81.256,0.642 c 0.231,0.433 0.218,1.065 -0.028,1.311 -0.489,0.49 -1.8,0.037 -1.8,-0.622 0,-0.889 1.432,-1.429 1.828,-0.689 m 110.416,1.504 c 0.617,0.682 -0.168,1.688 -1.13,1.446 -0.537,-0.135 -0.723,-0.83 -0.367,-1.373 0.325,-0.497 1.081,-0.533 1.497,-0.073 m -108.734,1.35 c 0.793,0.793 -0.182,2.018 -1.167,1.468 -0.591,-0.33 -0.673,-1.178 -0.148,-1.545 0.511,-0.358 0.903,-0.335 1.315,0.077 m 107.26,1.414 c 0.552,0.841 -0.373,1.781 -1.291,1.312 -0.706,-0.36 -0.824,-0.891 -0.312,-1.402 0.48,-0.48 1.259,-0.436 1.603,0.09 m -45.705,0.979 c 1.173,0.353 1.854,0.962 2.434,2.177 0.675,1.416 0.625,1.408 2.15,0.34 4.003,-2.806 8.949,-3.385 12.773,-1.495 2.129,1.052 2.104,1.197 -0.207,1.204 -3.864,0.012 -6.014,0.946 -9.626,4.185 -3.704,3.32 -8.866,4.427 -13.978,2.997 -1.938,-0.543 -2.269,-0.551 -3.413,-0.086 -2.675,1.087 -4.455,1.157 -7.198,0.285 -2.597,-0.826 -2.684,-0.781 -3.245,1.702 -1,4.427 -4.117,7 -7.162,5.913 -0.914,-0.327 -0.881,-0.472 0.23,-1.015 3.636,-1.778 4.952,-5.884 2.344,-7.312 -2.195,-1.202 -4.696,0.982 -5.84,5.101 -0.386,1.393 -0.437,1.452 -0.812,0.954 -1.646,-2.182 -1.204,-5.899 0.933,-7.852 2.809,-2.568 5.563,-2.586 12.963,-0.085 3.206,1.083 4.567,1.276 5.381,0.764 0.718,-0.453 0.684,-0.707 -0.193,-1.426 -2.403,-1.969 -0.926,-5.274 2.255,-5.047 2.352,0.168 3.67,1.264 3.67,3.052 0,0.883 -0.063,1.049 -0.768,2.007 -0.832,1.131 3.99,0.572 5.078,-0.589 1.601,-1.71 1.486,-2.793 -0.599,-5.635 l -0.275,-0.375 h 1.16 c 0.638,0 1.513,0.106 1.945,0.236 m -59.435,0.357 c 0.638,0.447 0.399,1.447 -0.393,1.645 -0.63,0.159 -1.237,-0.281 -1.237,-0.897 0,-0.905 0.85,-1.295 1.63,-0.748 m 103.192,1.346 c 0.648,0.824 0.288,1.628 -0.73,1.628 -0.689,0 -0.919,-0.242 -0.922,-0.971 -0.006,-1.041 1.026,-1.452 1.652,-0.657 m -100.96,2.003 c 0.644,0.583 0.161,1.558 -0.771,1.558 -0.654,0 -0.924,-0.26 -0.924,-0.89 0,-0.846 1.044,-1.257 1.695,-0.668 m 99,0.667 c 0.431,0.39 0.378,0.976 -0.122,1.37 -0.572,0.449 -1.573,0.045 -1.573,-0.634 0,-0.851 1.06,-1.311 1.695,-0.736 m -96.666,2 c 0.62,0.561 0.166,1.558 -0.71,1.558 -0.875,0 -1.288,-0.89 -0.71,-1.529 0.344,-0.379 1.017,-0.393 1.42,-0.029 m 94.478,0.363 c 0.757,0.613 -0.173,1.971 -1.037,1.515 -0.699,-0.368 -0.845,-0.981 -0.361,-1.516 0.352,-0.389 0.917,-0.389 1.398,0.001 m -22.82,0.986 c 0.747,1.911 -0.352,4.204 -2.266,4.727 -1.965,0.537 -3.463,1.788 -4.763,3.977 -1.351,2.274 -2.532,2.782 -4.84,2.083 l -0.981,-0.297 -0.96,0.618 c -3.587,2.309 -6.404,2.474 -8.151,0.476 l -0.523,-0.599 -0.841,0.362 c -1.112,0.478 -2.316,0.464 -4.609,-0.057 -2.963,-0.672 -4.28,-0.507 -6.68,0.835 -1.517,0.848 -1.652,0.562 -0.641,-1.361 1.603,-3.047 4.615,-4.101 7.186,-2.515 1.861,1.148 3.274,1.2 5.274,0.196 0.485,-0.244 0.874,-0.354 0.907,-0.256 0.819,2.458 4.044,2.732 7.416,0.63 l 1.274,-0.794 0.48,0.536 c 0.95,1.064 2.251,0.419 3.286,-1.627 0.696,-1.375 1.635,-2.248 2.912,-2.708 2.996,-1.078 4.526,-2.085 5.198,-3.423 0.658,-1.309 1.035,-1.538 1.322,-0.803 m -69.047,1.559 c 0.393,0.702 0.02,1.316 -0.799,1.316 -0.845,0 -1.281,-0.53 -1.015,-1.232 0.316,-0.83 1.369,-0.879 1.814,-0.084 m 89.431,0.412 c 0.58,0.58 0.098,1.571 -0.763,1.571 -0.489,0 -1.141,-0.503 -1.141,-0.88 0,-0.812 1.309,-1.287 1.904,-0.691 m -87.104,1.771 c 0.526,0.527 0.004,1.633 -0.771,1.633 -0.875,0 -1.32,-0.902 -0.754,-1.528 0.314,-0.346 1.221,-0.409 1.525,-0.105 m 84.228,0.409 c 0.696,0.63 0.281,1.558 -0.695,1.558 -0.743,0 -1,-0.243 -1,-0.942 0,-0.84 1.033,-1.215 1.695,-0.616 m -81.427,2.144 c 0.641,0.641 0.215,1.58 -0.717,1.58 -0.456,0 -1.051,-0.545 -1.051,-0.963 0,-0.967 1.051,-1.334 1.768,-0.617 m 78.565,0.58 c 0.65,0.65 0.27,1.667 -0.623,1.667 -0.96,0 -1.428,-1.212 -0.673,-1.741 0.499,-0.349 0.896,-0.326 1.296,0.074 m -75.678,1.606 c 0.431,0.549 0.434,0.805 0.012,1.228 -0.96,0.959 -2.322,-0.333 -1.412,-1.339 0.413,-0.456 0.989,-0.41 1.4,0.111 m 72.849,0.822 c 0.237,0.622 0.203,0.865 -0.171,1.239 -0.65,0.65 -1.666,0.27 -1.666,-0.624 0,-1.009 1.497,-1.51 1.837,-0.615 m -70.285,0.931 c 1.123,0.591 0.595,2.185 -0.622,1.88 -0.819,-0.206 -0.993,-1.024 -0.355,-1.663 0.47,-0.47 0.489,-0.474 0.977,-0.217 m 66.906,1.182 c 0.284,0.227 0.264,1.206 -0.03,1.45 -0.365,0.302 -1.223,0.262 -1.596,-0.074 -0.97,-0.879 0.594,-2.202 1.626,-1.376 m -63.499,0.986 c 0.477,1.001 -0.555,1.84 -1.447,1.175 -0.54,-0.403 -0.615,-0.77 -0.266,-1.303 0.388,-0.592 1.405,-0.517 1.713,0.128 m 59.427,0.832 c 1.049,0.552 0.785,1.811 -0.386,1.845 -1.174,0.033 -1.537,-1.297 -0.498,-1.823 0.506,-0.255 0.444,-0.254 0.884,-0.022 m -56.72,0.641 c 0.669,0.669 0.222,1.834 -0.703,1.834 -0.43,0 -0.963,-0.6 -0.963,-1.084 0,-0.5 0.538,-1.083 1,-1.083 0.183,0 0.483,0.15 0.666,0.333 m 53.374,0.996 c 0.854,0.672 0.545,1.727 -0.505,1.727 -1.084,0 -1.5,-1.293 -0.577,-1.794 0.591,-0.32 0.589,-0.32 1.082,0.067 m -50.235,0.604 c 0.539,0.377 0.443,1.215 -0.18,1.562 -0.954,0.531 -1.928,-0.7 -1.195,-1.51 0.351,-0.388 0.868,-0.408 1.375,-0.052 m 47.057,0.843 c 0.644,0.583 0.224,1.724 -0.635,1.724 -0.723,0 -1.061,-0.291 -1.061,-0.913 0,-0.929 1.024,-1.419 1.696,-0.811 m -43.708,0.33 c 0.421,0.535 0.424,0.594 0.044,1.063 -0.552,0.682 -1.865,0.29 -1.865,-0.557 0,-0.929 1.222,-1.268 1.821,-0.506 m 39.77,0.97 c 0.496,0.496 0.516,0.817 0.076,1.257 -0.675,0.675 -1.834,0.281 -1.834,-0.623 0,-0.992 1.029,-1.363 1.758,-0.634 m -36.197,0.103 c 0.502,0.394 0.552,0.753 0.18,1.284 -0.57,0.814 -2.128,0.182 -1.802,-0.731 0.325,-0.911 0.912,-1.112 1.622,-0.553 m 3.358,1.156 c 0.72,0.796 -0.271,2.017 -1.21,1.492 -0.379,-0.212 -0.459,-0.37 -0.459,-0.912 0,-1.01 0.973,-1.348 1.669,-0.58 m 29.506,-0.093 c 0.514,0.515 0.512,0.67 -0.019,1.201 -1.007,1.006 -2.533,-0.207 -1.566,-1.245 0.447,-0.48 1.078,-0.462 1.585,0.044 m -26.167,0.5 c 0.528,0.528 0.518,0.981 -0.03,1.413 -1.053,0.827 -2.338,-0.545 -1.394,-1.488 0.446,-0.446 0.928,-0.421 1.424,0.075 m 21.833,0.334 c 0.922,0.922 -0.287,2.223 -1.314,1.415 -0.53,-0.417 -0.568,-0.961 -0.104,-1.46 0.444,-0.476 0.912,-0.461 1.418,0.045 m -18.348,0.194 c 0.43,0.165 0.798,1.01 0.6,1.379 -0.302,0.564 -1.294,0.709 -1.747,0.256 -0.74,-0.74 0.155,-2.015 1.147,-1.635 m 14.703,0.5 c 0.561,0.858 -0.243,1.759 -1.234,1.382 -0.815,-0.31 -0.944,-0.935 -0.321,-1.558 0.482,-0.481 1.175,-0.403 1.555,0.176 m -11.226,-0.245 c 1.088,0.573 0.632,2.144 -0.542,1.864 -0.904,-0.215 -1.159,-1.074 -0.511,-1.722 0.384,-0.385 0.549,-0.407 1.053,-0.142 m 7.243,0.401 c 0.712,0.499 0.296,1.741 -0.583,1.741 -0.688,0 -1.046,-0.297 -1.046,-0.868 0,-0.983 0.834,-1.43 1.629,-0.873 m -3.453,0.251 c 0.46,0.459 0.371,1.156 -0.188,1.468 -0.9,0.503 -1.808,-0.208 -1.457,-1.142 0.284,-0.753 1.064,-0.908 1.645,-0.326"
       stroke="none"
       fill="#d4ac34"
       fill-rule="evenodd"
       style="fill:#d4af37;fill-opacity:1" />
    <path
       id="path1"
       d="m 194.422,69.161 c -0.569,0.629 -0.136,1.839 0.657,1.839 0.387,0 1.088,-0.687 1.088,-1.066 0,-0.869 -1.184,-1.393 -1.745,-0.773 m 3.448,-0.068 c -0.398,0.279 -0.483,0.885 -0.197,1.418 0.256,0.479 1.387,0.448 1.734,-0.048 0.727,-1.037 -0.478,-2.112 -1.537,-1.37 m 3.834,0.166 c -0.487,0.342 -0.517,1.317 -0.048,1.568 0.471,0.253 1.271,0.211 1.511,-0.078 0.772,-0.929 -0.465,-2.189 -1.463,-1.49 m 3.572,0.212 c -0.322,0.356 -0.365,1.207 -0.076,1.496 0.577,0.577 1.8,0.013 1.8,-0.829 0,-0.854 -1.152,-1.299 -1.724,-0.667 m -14.351,0.219 c -0.676,0.532 -0.492,1.507 0.324,1.712 1.298,0.325 1.865,-1.431 0.604,-1.87 -0.421,-0.147 -0.573,-0.121 -0.928,0.158 m 18.004,0.072 c -0.617,0.616 -0.113,1.738 0.78,1.738 0.445,0 1.124,-0.668 1.124,-1.106 0,-0.721 -1.363,-1.174 -1.904,-0.632 m -21.675,0.631 c -0.361,0.264 -0.415,1.129 -0.095,1.515 0.473,0.57 1.841,0.001 1.841,-0.765 0,-0.703 -1.14,-1.193 -1.746,-0.75 m 25.663,-0.027 c -1.253,0.71 -0.346,2.476 0.923,1.797 0.801,-0.428 0.795,-1.332 -0.01,-1.748 -0.563,-0.291 -0.493,-0.287 -0.913,-0.049 m -29.824,1.004 c -0.527,0.752 -0.161,1.63 0.68,1.63 0.758,0 1.06,-0.285 1.06,-1 0,-0.995 -1.184,-1.424 -1.74,-0.63 M 216.2,71.367 c -0.332,0.332 -0.25,1.428 0.122,1.627 0.822,0.44 1.72,-0.047 1.72,-0.934 0,-0.759 -1.29,-1.245 -1.842,-0.693 m -35.946,1.026 c -0.193,0.141 -0.31,0.433 -0.31,0.774 0,0.919 1.165,1.374 1.78,0.695 0.856,-0.945 -0.43,-2.23 -1.47,-1.469 m 39.783,0.033 c -0.793,0.555 -0.278,1.741 0.756,1.741 0.97,0 1.388,-0.986 0.707,-1.667 -0.4,-0.4 -0.958,-0.428 -1.463,-0.074 m -43.944,1.278 c -0.349,0.498 -0.327,0.896 0.074,1.296 0.688,0.688 1.666,0.219 1.666,-0.799 0,-0.871 -1.232,-1.223 -1.74,-0.497 m 47.316,0.372 c -0.499,0.499 -0.511,0.749 -0.064,1.318 0.571,0.726 1.988,0.266 1.988,-0.644 0,-0.883 -1.27,-1.328 -1.924,-0.674 m -50.137,0.936 c -0.802,0.632 -0.383,1.655 0.679,1.655 0.62,0 0.938,-0.35 0.938,-1.033 0,-0.914 -0.836,-1.236 -1.617,-0.622 m 53.504,0.459 c -0.347,0.383 -0.358,1.253 -0.02,1.534 0.406,0.337 1.283,0.233 1.628,-0.193 0.8,-0.988 -0.754,-2.284 -1.608,-1.341 m -56.484,0.871 c -0.46,0.275 -0.388,1.254 0.117,1.585 0.787,0.516 1.703,-0.23 1.45,-1.182 -0.144,-0.544 -0.974,-0.757 -1.567,-0.403 m 59.217,0.601 c -0.364,0.463 -0.336,0.934 0.084,1.376 0.326,0.343 1.242,0.299 1.514,-0.073 0.832,-1.137 -0.728,-2.409 -1.598,-1.303 m -27.926,0.327 c -0.55,0.225 -2.575,1.011 -4.5,1.748 -5.336,2.043 -5.372,2.07 -5.663,4.232 -0.782,5.804 -3.16,8.407 -7.694,8.42 -3.543,0.01 -4.858,0.6 -7.671,3.439 -1.141,1.151 -2.544,2.381 -3.208,2.81 -1.619,1.047 -1.507,1.289 0.597,1.289 1.659,0 2.56,-0.532 4.161,-2.458 1.753,-2.108 1.924,-2.175 5.002,-1.934 3.466,0.272 5.391,-0.201 6.552,-1.609 0.619,-0.751 0.778,-0.612 0.686,0.599 -0.253,3.317 0.371,4.11 3.238,4.109 2.922,0 4.904,-1.77 5.2,-4.642 0.116,-1.121 -0.087,-1.268 -0.837,-0.609 -1.882,1.651 -3.942,1.331 -3.718,-0.578 0.107,-0.907 1.374,-7.747 1.533,-8.275 0.051,-0.168 0.674,-0.478 1.619,-0.806 5.748,-1.995 8.51,-3.253 9.75,-4.441 1.105,-1.058 0.969,-1.271 -0.965,-1.508 -2.277,-0.279 -2.958,-0.244 -4.082,0.214 m 14.145,1.85 c -1.989,1.774 -2.317,2.356 -2.563,4.542 -0.224,1.999 -0.632,2.75 -1.94,3.568 -1.134,0.709 -1.15,0.703 -1.278,-0.523 -0.318,-3.045 -2.878,-4.255 -5.987,-2.831 -3.219,1.473 -2.139,7.291 1.353,7.291 1.561,0 1.574,1.325 0.034,3.564 -1.052,1.528 -5.492,3.602 -7.713,3.602 -1.435,0 -1.639,0.697 -0.374,1.276 2.659,1.218 7.409,0.635 9.823,-1.205 1.09,-0.83 2.216,-3.377 2.588,-5.857 0.265,-1.756 0.221,-1.707 2.18,-2.476 3.273,-1.284 4.713,-2.392 5.688,-4.377 l 0.544,-1.109 -0.026,-2.667 c -0.027,-2.784 -0.183,-4.099 -0.498,-4.204 -0.102,-0.034 -0.926,0.598 -1.831,1.406 m -48.687,-1.078 c -0.621,0.775 -0.322,1.791 0.526,1.791 0.696,0 1.1,-0.362 1.1,-0.986 0,-0.809 -1.162,-1.385 -1.626,-0.805 m 65.368,0.7 c -0.712,0.713 -0.266,1.591 0.808,1.591 0.688,0 0.95,-0.254 0.95,-0.924 0,-1.023 -1.016,-1.408 -1.758,-0.667 m -68.467,1.396 c -0.532,0.588 -0.209,1.357 0.659,1.567 0.805,0.194 1.446,-0.77 0.983,-1.477 -0.322,-0.492 -1.232,-0.542 -1.642,-0.09 m 71.484,0.566 C 235.077,81.202 235.1,81.6 235.5,82 c 0.65,0.65 1.833,0.183 1.833,-0.724 0,-0.888 -1.393,-1.306 -1.907,-0.572 m -54.923,0.482 c -1.315,0.525 -1.509,1.78 -0.453,2.939 0.456,0.501 1.384,0.498 2.134,-0.005 1.621,-1.09 0.147,-3.663 -1.681,-2.934 m 5.145,0.064 c -1.177,0.64 -0.796,2.912 0.519,3.089 1.294,0.175 2.166,-0.499 2.166,-1.672 0,-1.378 -1.399,-2.116 -2.685,-1.417 m 35.583,0.614 c -1.67,2.644 -1.954,4.108 -1.969,10.136 -0.013,4.782 0.097,6.167 0.485,6.167 0.805,0 3.537,-4.869 4.022,-7.167 0.591,-2.803 0.119,-6.77 -1.061,-8.915 -0.597,-1.083 -0.904,-1.129 -1.477,-0.221 m -60.157,0.543 c -0.365,0.558 -0.247,1.115 0.301,1.421 0.953,0.531 1.928,-0.699 1.195,-1.509 -0.414,-0.457 -1.168,-0.413 -1.496,0.088 m 77.368,0.231 c -0.921,1.018 0.599,2.321 1.572,1.348 0.359,-0.359 0.338,-0.978 -0.048,-1.443 -0.261,-0.315 -1.206,-0.256 -1.524,0.095 m -80.516,2.066 C 157.577,85.202 157.6,85.6 158,86 c 0.656,0.656 1.667,0.226 1.667,-0.71 0,-0.918 -1.221,-1.329 -1.741,-0.586 m 71.818,0.186 c -2.425,1.106 -3.77,6.298 -2.097,8.089 1.353,1.448 5.363,1.028 7.082,-0.741 0.719,-0.74 0.931,-0.622 0.935,0.521 0.017,4.499 -9.149,7.798 -23.331,8.396 -24.625,1.04 -35.438,0.652 -41,-1.471 -3.406,-1.3 -4.835,-3.477 -2.438,-3.714 3.495,-0.345 4.904,-1.591 5.071,-4.485 0.261,-4.494 -4.415,-6.496 -8.541,-3.657 -4.002,2.753 -1.407,11.303 4.337,14.291 3.881,2.02 4.685,2.109 19.155,2.121 34.589,0.029 44.926,-1.551 47.748,-7.297 1.748,-3.561 1.113,-8.459 -1.355,-10.442 -1.791,-1.439 -4.331,-2.175 -5.566,-1.611 m 11.415,0.036 c -0.32,0.386 -0.266,1.25 0.095,1.514 1.038,0.759 2.386,-0.642 1.441,-1.498 -0.384,-0.347 -1.253,-0.357 -1.536,-0.016 m -64.016,0.66 c -0.839,0.455 -1.074,1.998 -0.407,2.665 0.776,0.776 1.793,0.745 2.619,-0.08 1.376,-1.377 -0.468,-3.532 -2.212,-2.585 m 5.574,0.376 c -1.617,1.271 0.159,3.97 1.899,2.886 1.196,-0.746 1.353,-1.924 0.366,-2.755 -0.611,-0.514 -1.698,-0.577 -2.265,-0.131 m -27.012,1.076 c -0.72,0.347 -0.632,1.388 0.153,1.809 0.642,0.343 1.517,-0.451 1.348,-1.224 -0.052,-0.236 -0.865,-0.825 -1.073,-0.778 -0.027,0.006 -0.22,0.093 -0.428,0.193 m 87.972,0.285 c -0.492,0.492 -0.451,1.265 0.086,1.617 0.955,0.626 1.968,-0.493 1.282,-1.416 -0.419,-0.563 -0.931,-0.638 -1.368,-0.201 m -90.464,2.349 c -0.865,0.344 -0.52,1.828 0.426,1.828 0.907,0 1.435,-0.851 0.907,-1.462 -0.368,-0.426 -0.85,-0.558 -1.333,-0.366 m 93.187,0.289 c -0.688,0.459 -0.58,1.582 0.181,1.871 1.069,0.407 1.873,-0.875 1.013,-1.615 -0.453,-0.39 -0.862,-0.478 -1.194,-0.256 m 2.203,2.754 c -0.495,0.362 -0.309,1.486 0.279,1.691 0.553,0.194 1.27,-0.16 1.481,-0.732 0.284,-0.767 -1.038,-1.487 -1.76,-0.959 m -98.161,0.423 c -0.386,0.427 -0.359,1.306 0.047,1.523 1.051,0.562 2.233,-0.774 1.373,-1.552 -0.403,-0.364 -1.076,-0.35 -1.42,0.029 m 62.975,0.505 c -1.193,0.737 -1.531,2.037 -0.861,3.313 1.051,2.001 4.443,0.941 4.444,-1.39 0.001,-1.598 -2.199,-2.778 -3.583,-1.923 m -64.978,1.869 c -0.803,0.632 -0.383,1.655 0.679,1.655 0.683,0 0.947,-0.352 0.81,-1.08 -0.169,-0.905 -0.773,-1.138 -1.489,-0.575 M 250.833,95.5 c -0.915,0.915 0.228,2.156 1.297,1.407 0.738,-0.517 0.269,-1.74 -0.667,-1.74 -0.163,0 -0.446,0.15 -0.63,0.333 m -65.825,1.966 c -1.102,1.102 -0.422,3.034 1.068,3.034 2.342,0 2.517,-3.195 0.189,-3.457 -0.668,-0.075 -0.804,-0.03 -1.257,0.423 m 57.159,0.451 c -5.492,1.11 -9.072,5.163 -10.009,11.333 -0.514,3.383 -0.31,23.301 0.349,34.083 0.899,14.705 2.308,19.429 6.453,21.633 4.909,2.612 11.434,-0.033 11.819,-4.79 0.216,-2.663 -4.367,-5.021 -7.343,-3.778 -1.913,0.799 -1.985,4.492 -0.127,6.615 1.526,1.746 -1.104,1.638 -2.985,-0.121 -4.296,-4.018 -5.816,-14.897 -5.823,-41.66 -0.002,-10.924 1.368,-17.384 4.058,-19.128 1.13,-0.733 1.441,-0.488 1.441,1.137 0,2.784 1.85,4.234 5.099,3.995 2.563,-0.188 3.901,-1.581 3.901,-4.06 0,-3.777 -2.946,-6.045 -6.833,-5.259 m 10.703,0.509 c -0.703,0.493 -0.299,1.741 0.564,1.741 0.549,0 1.066,-0.477 1.066,-0.984 0,-0.873 -0.88,-1.282 -1.63,-0.757 M 146.259,98.87 c -0.342,0.49 -0.327,0.729 0.074,1.13 0.659,0.658 1.667,0.268 1.667,-0.645 0,-0.894 -1.217,-1.233 -1.741,-0.485 m 10.89,-0.128 c -4.186,1.154 -6.603,6.29 -3.922,8.335 1.509,1.151 5.146,1.755 6.356,1.056 1.927,-1.112 1.882,-4.565 -0.087,-6.701 l -0.7,-0.759 0.456,-0.174 c 3.162,-1.202 6.179,3.882 7.566,12.751 0.798,5.102 0.565,32.443 -0.336,39.417 -0.83,6.424 -2.426,10.636 -4.383,11.564 -0.984,0.467 -1.011,0.434 -1.213,-1.492 -0.528,-5.019 -6.042,-6.104 -8.248,-1.623 -2.11,4.286 2.467,8.53 7.409,6.869 6.44,-2.164 8.819,-6.576 9.291,-17.235 0.097,-2.2 0.248,-5.013 0.335,-6.25 0.086,-1.238 0.158,-6.713 0.158,-12.167 0.003,-26.209 -1.231,-31.446 -7.89,-33.483 -1.316,-0.403 -3.542,-0.453 -4.792,-0.108 m 97.627,2.729 c -0.362,0.4 -0.35,0.91 0.029,1.253 0.627,0.568 1.695,0.146 1.695,-0.67 0,-0.779 -1.184,-1.18 -1.724,-0.583 M 144.5,102 c -0.648,0.648 -0.228,1.667 0.688,1.667 0.558,0 0.812,-0.294 0.812,-0.941 0,-0.913 -0.885,-1.341 -1.5,-0.726 m 69.873,3.13 c -2.966,6.633 -3.438,15.255 -1.072,19.608 0.852,1.567 0.881,1.558 1.965,-0.601 3.322,-6.62 3.522,-14.866 0.473,-19.512 -0.572,-0.871 -0.787,-0.791 -1.366,0.505 m -6.751,-0.317 c -1.454,1.609 -2.09,4.753 -2.212,10.937 -0.105,5.301 -0.242,6.158 -1.215,7.566 -1.352,1.958 -2.884,2.048 -7.061,0.416 -0.779,-0.305 -0.785,-0.304 -1.169,0.056 -1.368,1.285 -4.841,1.864 -9.032,1.504 -0.725,-0.063 -0.685,0.202 0.195,1.294 1.925,2.389 4.948,2.765 8.518,1.058 l 1.396,-0.667 0.77,0.329 c 4.036,1.72 8.798,1.102 10.468,-1.361 2.48,-3.656 2.819,-13.406 0.698,-20.064 -0.591,-1.854 -0.624,-1.879 -1.356,-1.068 m 20.837,-0.145 c -1.398,2.167 -2.499,6.348 -2.524,9.582 -0.021,2.903 -0.217,3.497 -1.418,4.309 -0.873,0.591 -0.885,0.578 -0.651,-0.735 0.541,-3.052 0.193,-8.558 -0.648,-10.233 -0.351,-0.7 -1.56,-1.924 -1.9,-1.924 -0.261,0 -0.532,3.784 -0.435,6.083 0.012,0.275 -0.034,2.975 -0.102,6 -0.076,3.331 -0.063,5.592 0.03,5.732 0.501,0.753 6.287,-1.874 7.43,-3.372 0.598,-0.783 0.689,-1.118 1.194,-4.376 0.768,-4.957 0.658,-8.342 -0.345,-10.65 l -0.362,-0.832 -0.269,0.416 m 28.249,-0.205 c -0.556,0.089 -0.783,0.621 -0.528,1.236 0.333,0.804 1.82,0.437 1.82,-0.449 0,-0.567 -0.557,-0.906 -1.292,-0.787 m -61.74,0.495 c -0.844,0.906 -0.888,1.109 -0.839,3.923 0.157,9.148 -1.704,12.199 -6.546,10.725 -3.729,-1.135 -1.8,2.316 2,3.577 5.465,1.813 7.799,-1.2 7.824,-10.1 0.018,-6.147 -1.03,-9.636 -2.439,-8.125 m -52.375,0.079 c -0.366,0.523 -0.322,1.067 0.111,1.37 0.747,0.524 1.629,0.161 1.629,-0.669 0,-0.924 -1.235,-1.422 -1.74,-0.701 m 58.069,0.171 c -1.345,2.184 -2.157,10.811 -1.338,14.209 0.967,4.014 2.045,4.278 3.59,0.879 1.229,-2.703 0.805,-8.123 -1.103,-14.088 -0.543,-1.696 -0.659,-1.797 -1.149,-1 m -17.39,1.334 c -0.966,2.657 -1.769,6.651 -1.771,8.808 -0.001,1.307 -0.469,2.199 -1.199,2.285 -0.568,0.066 -0.895,-0.804 -0.731,-1.947 0.96,-6.682 0.607,-9.955 -1.096,-10.155 -1.265,-0.149 -1.562,1.125 -1.767,7.577 l -0.154,4.859 -1.117,1.339 c -2.83,3.394 -3.922,6.957 -3.196,10.427 0.379,1.814 0.669,1.821 1.342,0.031 0.555,-1.473 2.536,-5.697 2.978,-6.349 1.564,-2.307 2.132,-2.736 3.63,-2.744 2.39,-0.013 4.431,-1.128 5.196,-2.84 1.058,-2.365 0.394,-10.348 -0.998,-12.002 -0.577,-0.685 -0.619,-0.658 -1.117,0.711 m 6.383,-0.111 c -1.714,4.36 -2.092,8.808 -0.949,11.161 0.667,1.371 1.438,1.139 2.43,-0.731 1.26,-2.375 1.128,-5.451 -0.393,-9.184 -0.703,-1.727 -0.838,-1.881 -1.088,-1.246 m 68.212,1.436 c -0.284,0.283 -0.248,1.061 0.062,1.371 0.608,0.609 1.738,0.115 1.738,-0.759 0,-0.571 -0.297,-0.812 -1,-0.812 -0.33,0 -0.69,0.09 -0.8,0.2 m -116.663,0.226 c -0.784,0.548 -0.281,1.74 0.734,1.74 0.639,0 0.895,-0.268 0.895,-0.94 0,-0.559 -0.472,-1.06 -1,-1.06 -0.142,0 -0.426,0.117 -0.629,0.26 m 31.56,0.05 c -0.105,0.171 -0.353,2.91 -0.598,6.607 -0.097,1.467 -0.254,3.148 -0.348,3.736 -0.156,0.98 -0.142,1.097 0.168,1.407 l 0.339,0.339 0.66,-1.43 c 1.863,-4.032 2.089,-7.535 0.641,-9.927 -0.525,-0.868 -0.691,-1.008 -0.862,-0.732 m 71.748,0.789 c -5.201,1.398 -6.738,4.781 -6.96,15.318 -0.258,12.256 1.085,24.286 3.164,28.339 0.952,1.857 0.892,2.83 0.879,-14.195 -0.015,-19.546 0.092,-20.996 1.739,-23.561 1.233,-1.922 3.487,-2.827 4.46,-1.791 1.17,1.246 1.249,2.342 0.366,5.101 -2.025,6.337 -1.258,10.354 2.298,12.026 l 0.754,0.354 -0.898,0.6 c -4.526,3.025 -6.174,7.181 -5.943,14.992 0.159,5.39 2.541,7.968 8.177,8.852 1.9,0.298 1.685,-0.757 -0.382,-1.866 -4.18,-2.242 -5.128,-7.107 -1.383,-7.099 1.669,0.003 2.79,0.83 4.178,3.081 1.875,3.042 3.011,1.812 1.644,-1.78 -1.323,-3.476 -3.243,-5.42 -5.895,-5.967 -1.521,-0.313 -1.881,-1.261 -1.316,-3.464 0.872,-3.405 5.587,-6.872 9.345,-6.872 0.69,0 0.966,-0.317 0.897,-1.031 l -0.053,-0.552 h -1.834 c -5.562,0 -7.346,-3.82 -5.151,-11.03 0.955,-3.137 0.546,-4.669 -1.915,-7.176 -2.213,-2.255 -3.918,-2.885 -6.171,-2.279 m -93.179,1.805 c 0,0.682 0.429,1.362 0.992,1.573 0.28,0.104 0.737,0.276 1.016,0.38 0.648,0.243 0.993,0.912 0.992,1.927 -0.002,2.807 -3.305,3.26 -4.592,0.629 -0.513,-1.048 -0.736,-1.11 -1.441,-0.405 -1.839,1.839 2.519,5.535 5.612,4.758 0.563,-0.141 0.612,0.171 0.337,2.112 -0.516,3.624 -0.307,4.536 1.417,6.192 l 0.997,0.957 -0.012,1.445 c -0.013,1.755 0.364,2.901 1.346,4.088 0.758,0.916 0.775,0.978 0.394,1.359 -0.552,0.551 -1.224,0.614 -8.141,0.759 -8.55,0.179 -9.091,0.244 -8.312,0.987 1.285,1.224 8.312,2.345 13.223,2.108 8.655,-0.418 9.865,-1.512 5.921,-5.354 -1.672,-1.628 -2.415,-2.741 -2.415,-3.616 v -0.632 l 1.228,0.104 c 2.108,0.178 3.359,-0.885 3.351,-2.846 -0.013,-3.229 -3.255,-4.386 -5.449,-1.945 -0.773,0.858 -0.779,0.862 -0.991,0.482 -0.362,-0.648 -0.252,-2.406 0.247,-3.941 1.953,-6.011 -0.053,-11.239 -4.409,-11.492 l -1.311,-0.075 v 0.446 m 107.764,0.248 c -0.733,0.81 0.241,2.041 1.195,1.509 0.548,-0.305 0.666,-0.863 0.3,-1.42 -0.328,-0.501 -1.082,-0.546 -1.495,-0.089 M 140,111.5 c -0.658,0.658 -0.268,1.667 0.645,1.667 0.619,0 0.855,-0.284 0.855,-1.028 0,-0.942 -0.839,-1.3 -1.5,-0.639 m 120.2,2.867 c -0.264,0.263 -0.255,0.994 0.016,1.364 0.332,0.455 1.291,0.303 1.602,-0.253 0.494,-0.885 -0.892,-1.837 -1.618,-1.111 m -121.575,0.813 c -0.48,0.28 -0.399,1.445 0.117,1.68 0.561,0.255 1.393,-0.093 1.531,-0.64 0.201,-0.804 -0.881,-1.487 -1.648,-1.04 m 122.435,2.583 c -0.488,0.743 -0.149,1.32 0.773,1.32 0.654,0 0.761,-0.052 0.899,-0.445 0.224,-0.638 -0.235,-1.305 -0.899,-1.305 -0.345,0 -0.576,0.129 -0.773,0.43 m -123.234,0.996 c -0.321,0.386 -0.267,1.25 0.095,1.515 1.016,0.743 2.366,-0.66 1.441,-1.498 -0.384,-0.348 -1.253,-0.358 -1.536,-0.017 m 124.103,2.336 c -0.618,0.618 -0.221,1.572 0.654,1.572 0.655,0 0.917,-0.263 0.917,-0.917 0,-0.875 -0.954,-1.273 -1.571,-0.655 M 137,122.667 c -0.422,0.422 -0.42,0.678 0.012,1.227 0.597,0.759 1.821,0.394 1.821,-0.544 0,-0.926 -1.159,-1.358 -1.833,-0.683 m 10.148,1.575 c -0.803,0.451 -1.154,1.827 -0.636,2.486 1.026,1.303 3.155,0.707 3.155,-0.884 0,-1.301 -1.434,-2.213 -2.519,-1.602 m 115.144,0.438 c -0.34,0.198 -0.4,1.146 -0.092,1.453 0.299,0.299 1.044,0.242 1.358,-0.104 0.741,-0.82 -0.289,-1.918 -1.266,-1.349 m -83.258,0.195 c -0.095,0.115 -0.398,0.959 -0.674,1.875 -1.267,4.219 -2.639,6.616 -4.86,8.489 -2.271,1.917 -3.009,3.672 -1.748,4.156 1.316,0.504 6.807,-2.535 7.675,-4.249 l 0.43,-0.847 0.969,1 c 3.664,3.78 7.879,3.829 12.817,0.149 2.574,-1.918 5.563,-2.509 8.19,-1.618 1.344,0.455 1.293,0.389 0.771,1.009 -1.072,1.275 0.026,4.242 1.813,4.895 3.485,1.276 6.861,-0.614 5.742,-3.214 -0.682,-1.586 0.379,-1.58 3.46,0.017 5.794,3.004 6.911,3.458 8.848,3.591 2.907,0.2 6.208,-1.663 5.323,-3.004 -0.589,-0.894 -4.305,-4.44 -7.342,-7.009 -1.63,-1.377 -1.21,-1.987 1.318,-1.913 l 1.642,0.048 0.119,0.696 c 0.625,3.673 6.652,3.208 6.636,-0.512 -0.012,-2.881 -1.553,-3.573 -6.746,-3.027 -1.284,0.134 -3.017,0.311 -3.852,0.392 -2.396,0.233 -5.344,1.906 -5.198,2.949 0.047,0.335 2.844,3.044 6.039,5.849 1.731,1.519 1.855,1.672 1.608,1.969 -0.68,0.82 -2.224,0.426 -5.2,-1.327 -4.081,-2.405 -7.093,-3.195 -10.241,-2.686 -0.821,0.133 -0.864,0.119 -1.66,-0.539 -3.017,-2.494 -6.899,-2.77 -12.862,-0.917 -5.954,1.85 -9.446,0.472 -11.918,-4.703 -0.901,-1.886 -0.851,-1.817 -1.099,-1.519 m -42.695,1.114 c -0.444,0.831 -0.026,1.678 0.83,1.678 0.858,0 1.322,-1.155 0.693,-1.725 -0.427,-0.386 -1.306,-0.359 -1.523,0.047 m 7.578,1.32 c -1.869,0.605 -1.652,3.093 0.289,3.312 1.089,0.122 1.794,-0.545 1.794,-1.699 0,-0.805 -0.524,-1.589 -1.062,-1.589 -0.134,0 -0.344,-0.03 -0.466,-0.066 -0.122,-0.037 -0.372,-0.018 -0.555,0.042 m 118.62,0.617 c -0.741,0.519 -0.314,1.637 0.616,1.611 1.337,-0.038 1.351,-1.87 0.014,-1.87 -0.143,0 -0.426,0.116 -0.63,0.259 m -126.428,1.712 c -0.6,0.663 -0.118,1.695 0.791,1.695 0.972,0 1.481,-1.104 0.795,-1.724 -0.404,-0.366 -1.242,-0.351 -1.586,0.029 m 126.435,1.737 c -0.569,0.728 -0.193,1.625 0.682,1.625 0.66,0 0.941,-0.255 0.941,-0.855 0,-0.814 -1.158,-1.363 -1.623,-0.77 m -115.723,0.446 c -1.036,1.035 -0.341,2.846 1.091,2.846 1.71,0 2.503,-1.619 1.355,-2.767 -0.769,-0.769 -1.726,-0.8 -2.446,-0.079 M 136.333,133 c -0.66,0.66 -0.207,1.667 0.75,1.667 0.94,0 1.446,-1.121 0.779,-1.725 -0.414,-0.374 -1.124,-0.347 -1.529,0.058 m 126.292,2.013 c -0.344,0.201 -0.4,1.189 -0.082,1.453 0.772,0.641 1.624,0.262 1.624,-0.722 0,-0.798 -0.787,-1.17 -1.542,-0.731 m -126.53,1.916 c -0.621,0.621 -0.088,1.738 0.83,1.738 0.412,0 1.075,-0.65 1.075,-1.053 0,-0.768 -1.34,-1.25 -1.905,-0.685 m 60.016,0.446 c -2.517,3.358 -2.366,14.036 0.236,16.638 1.273,1.274 2.44,-3.817 2.28,-9.951 -0.084,-3.237 -0.297,-4.251 -1.315,-6.27 -0.561,-1.112 -0.655,-1.145 -1.201,-0.417 m 4.874,0.232 c -0.426,0.119 -0.671,3.567 -0.719,10.143 -0.038,5.146 -0.077,5.916 -0.338,6.54 -1.04,2.484 -4.476,3.014 -9.419,1.453 -1.883,-0.595 -1.911,-0.502 -0.306,1.018 3.251,3.076 7.678,3.902 10.821,2.017 3.583,-2.148 4.471,-8.993 2.227,-17.178 -1.025,-3.742 -1.318,-4.258 -2.266,-3.993 m 61.714,0.356 c -0.524,0.085 -0.812,0.74 -0.565,1.282 0.472,1.037 2.283,0.473 1.941,-0.604 -0.124,-0.393 -0.872,-0.761 -1.376,-0.678 m -80.866,3.097 c 0,7.869 -2.147,13.707 -5.463,14.855 -1.512,0.524 -1.93,0.831 -2.409,1.773 -0.487,0.957 -0.791,2.468 -0.631,3.138 l 0.098,0.41 0.383,-0.537 c 0.466,-0.655 0.891,-0.882 3.072,-1.64 3.051,-1.059 5.256,-2.701 6.055,-4.508 0.215,-0.487 0.437,-0.884 0.493,-0.884 0.055,0 0.515,0.12 1.022,0.267 2.565,0.746 5.09,-0.313 6.097,-2.557 0.669,-1.49 1.441,-8.415 1.061,-9.517 -0.279,-0.811 -1.289,-2.178 -1.615,-2.187 -0.373,-0.009 -1.331,1.996 -1.491,3.119 -0.074,0.527 -0.219,1.266 -0.32,1.643 -0.102,0.377 -0.339,1.686 -0.526,2.91 -0.449,2.927 -0.775,3.455 -2.351,3.809 -1.388,0.312 -1.57,-0.187 -1.187,-3.237 0.649,-5.172 0.372,-7.551 -0.954,-8.202 -1.315,-0.645 -1.334,-0.627 -1.334,1.345 m -45.224,-0.255 c -0.576,0.636 -0.072,1.695 0.808,1.695 0.483,0 1.083,-0.533 1.083,-0.963 0,-0.913 -1.279,-1.408 -1.891,-0.732 m 92.058,0.147 c -0.138,0.051 -0.705,0.526 -1.261,1.055 -1.141,1.085 -2.153,1.491 -3.728,1.496 -1.15,0.003 -1.271,0.079 -1.596,1.004 -0.621,1.765 -1.444,2.476 -3.435,2.965 -1.217,0.299 -1.224,0.304 -1.781,1.258 -0.622,1.064 -1.343,1.602 -2.15,1.603 -0.576,0 -0.516,0.129 -0.8,-1.708 -0.376,-2.429 -3.469,-3.236 -5.394,-1.408 -2.153,2.044 -0.521,5.82 2.413,5.582 0.893,-0.073 1.034,0.26 0.649,1.531 -0.501,1.657 -2.596,3.163 -6.646,4.78 l -2.188,0.875 1.417,0.033 c 6.993,0.168 9.394,-1.191 10.028,-5.675 0.242,-1.711 0.305,-1.771 2.003,-1.919 1.666,-0.145 2.277,-0.379 2.814,-1.074 1.1,-1.427 1.05,-1.391 2.127,-1.538 1.844,-0.252 2.808,-0.975 3.642,-2.729 0.433,-0.91 0.535,-1.012 1.139,-1.138 2.649,-0.552 3.115,-1.105 3.292,-3.903 0.078,-1.223 0.036,-1.305 -0.545,-1.09 m 33.222,1.484 c -0.256,0.39 -0.26,0.482 -0.041,0.875 0.496,0.886 1.819,0.595 1.819,-0.4 0,-0.892 -1.281,-1.234 -1.778,-0.475 m -112.712,0.245 c -3.608,0.467 -6.131,2.518 -4.364,3.547 0.863,0.502 2.076,0.415 5.02,-0.362 7.351,-1.941 10.497,-0.912 11.67,3.817 0.762,3.07 -2.754,5.304 -10.003,6.356 -0.687,0.1 2.119,0.928 3.871,1.143 5.724,0.702 9.516,-1.705 9.907,-6.286 0.49,-5.753 -6.715,-9.429 -16.101,-8.215 m 25.156,1.044 c 0,0.123 -0.114,2.275 -0.253,4.782 -0.228,4.1 -0.228,4.583 0.003,4.814 1.257,1.257 3.073,-5.602 2.071,-7.821 -0.507,-1.121 -1.821,-2.403 -1.821,-1.775 m -36.75,0.303 c -1.048,0.608 -0.629,1.805 0.633,1.805 0.632,0 0.951,-0.32 0.951,-0.957 0,-0.728 -0.93,-1.226 -1.584,-0.848 m 123.843,1.509 c -0.662,0.945 0.723,2.081 1.541,1.263 0.522,-0.523 -0.022,-1.633 -0.8,-1.633 -0.309,0 -0.575,0.133 -0.741,0.37 m -32.861,1.947 c -0.881,0.537 -1.042,0.84 -2.568,4.822 -0.802,2.093 -1.838,3.064 -5.805,5.445 -2.305,1.382 -2.241,1.505 0.709,1.369 3.344,-0.155 6.608,-1.33 7.264,-2.616 0.486,-0.954 1.076,-4.43 1.407,-8.296 0.102,-1.186 -0.059,-1.302 -1.007,-0.724 m -90.639,0.386 c -0.43,0.615 0.083,1.63 0.824,1.63 0.339,0 1.083,-0.739 1.083,-1.076 0,-0.819 -1.43,-1.234 -1.907,-0.554 m 123.254,0.866 c -0.443,0.472 -0.36,0.972 0.227,1.356 0.941,0.617 1.957,-0.727 1.122,-1.483 -0.429,-0.388 -0.908,-0.343 -1.349,0.127 m -111.288,1.085 c -1.006,0.613 -1.127,2.065 -0.243,2.912 1.221,1.169 3.351,0.333 3.351,-1.316 0,-1.475 -1.795,-2.397 -3.108,-1.596 m -10.528,1.626 c -0.34,0.136 -0.542,0.834 -0.372,1.282 0.35,0.92 1.997,0.561 2.005,-0.437 0.006,-0.656 -0.915,-1.132 -1.633,-0.845 m 120.606,0.803 c -0.415,0.911 0.65,1.813 1.37,1.161 0.657,-0.595 0.201,-1.578 -0.732,-1.578 -0.317,0 -0.504,0.123 -0.638,0.417 m -119.464,2.906 c -0.597,1.116 0.443,2.128 1.457,1.418 0.81,-0.568 0.252,-1.741 -0.828,-1.741 -0.281,0 -0.523,0.124 -0.629,0.323 m 118.436,-0.018 c -0.584,0.646 -0.213,1.529 0.641,1.529 0.603,0 0.917,-0.335 0.917,-0.977 0,-0.772 -1.029,-1.136 -1.558,-0.552 m -1.68,2.624 c -0.354,0.354 -0.331,1.124 0.043,1.462 0.656,0.594 1.584,0.17 1.584,-0.724 0,-0.883 -1.02,-1.346 -1.627,-0.738 m -115.167,1 c -0.608,0.608 -0.231,1.738 0.581,1.738 0.335,0 1.157,-0.786 1.157,-1.106 0,-0.704 -1.221,-1.148 -1.738,-0.632 m 113.664,2.275 c -0.341,0.488 -0.327,0.85 0.046,1.187 0.862,0.78 2.074,-0.204 1.522,-1.235 -0.251,-0.469 -1.226,-0.439 -1.568,0.048 m -53.342,0.628 c -23.752,0.617 -33.782,2.041 -37.433,5.313 -3.301,2.959 -3.614,9.363 -0.593,12.147 1.567,1.444 4.206,2.312 5.743,1.889 2.337,-0.645 4.177,-5.514 2.839,-7.514 -1.295,-1.935 -5.626,-1.975 -7.41,-0.068 -0.908,0.971 -1.063,0.942 -1.063,-0.198 0,-4.793 8.605,-7.752 24.667,-8.483 28.763,-1.309 38.783,-0.646 44.271,2.93 2.356,1.535 2.366,1.998 0.048,2.279 -3.774,0.457 -5.424,2.574 -4.662,5.982 1.195,5.337 10.855,3.688 10.839,-1.85 -0.018,-6.419 -5.231,-11.238 -13.246,-12.245 -1.933,-0.243 -17.209,-0.359 -24,-0.182 m -58.824,0.872 c -0.514,0.733 -0.092,1.463 0.845,1.463 0.823,0 1.157,-0.699 0.723,-1.511 -0.251,-0.469 -1.227,-0.439 -1.568,0.048 m 110.487,1.529 c -0.356,0.543 -0.17,1.238 0.367,1.373 0.572,0.144 1.19,-0.18 1.318,-0.69 0.237,-0.946 -1.146,-1.506 -1.685,-0.683 m -108.552,1.2 c -0.525,0.367 -0.443,1.215 0.148,1.545 0.985,0.55 1.96,-0.675 1.167,-1.468 -0.412,-0.412 -0.804,-0.435 -1.315,-0.077 m 106.972,1.401 c -0.512,0.511 -0.394,1.042 0.312,1.402 0.554,0.283 1.124,0.088 1.38,-0.474 0.441,-0.969 -0.91,-1.711 -1.692,-0.928 m -46.932,1.208 c 2.085,2.842 2.2,3.925 0.599,5.635 -1.088,1.161 -5.91,1.72 -5.078,0.589 0.705,-0.958 0.768,-1.124 0.768,-2.007 0,-1.788 -1.318,-2.884 -3.67,-3.052 -3.181,-0.227 -4.658,3.078 -2.255,5.047 0.877,0.719 0.911,0.973 0.193,1.426 -0.814,0.512 -2.175,0.319 -5.381,-0.764 -7.4,-2.501 -10.154,-2.483 -12.963,0.085 -2.137,1.953 -2.579,5.67 -0.933,7.852 0.375,0.498 0.426,0.439 0.812,-0.954 1.144,-4.119 3.645,-6.303 5.84,-5.101 2.608,1.428 1.292,5.534 -2.344,7.312 -1.111,0.543 -1.144,0.688 -0.23,1.015 3.045,1.087 6.162,-1.486 7.162,-5.913 0.561,-2.483 0.648,-2.528 3.245,-1.702 2.743,0.872 4.523,0.802 7.198,-0.285 1.144,-0.465 1.475,-0.457 3.413,0.086 5.112,1.43 10.274,0.323 13.978,-2.997 3.612,-3.239 5.762,-4.173 9.626,-4.185 2.311,-0.007 2.336,-0.152 0.207,-1.204 -3.824,-1.89 -8.77,-1.311 -12.773,1.495 -1.525,1.068 -1.475,1.076 -2.15,-0.34 -0.823,-1.724 -2.074,-2.413 -4.379,-2.413 h -1.16 l 0.275,0.375 m -57.973,0.22 c -0.404,0.404 -0.332,1.185 0.137,1.492 1.044,0.684 2.25,-0.78 1.231,-1.494 -0.474,-0.332 -1.034,-0.331 -1.368,0.002 m 103.181,1.21 c -0.3,0.331 -0.362,1.134 -0.118,1.52 0.229,0.362 1.33,0.312 1.612,-0.074 0.709,-0.97 -0.695,-2.329 -1.494,-1.446 m -100.984,2.094 c -0.334,0.253 -0.39,1.103 -0.092,1.401 0.304,0.304 1.211,0.241 1.524,-0.105 0.804,-0.888 -0.462,-2.033 -1.432,-1.296 m 98.967,0.805 c -0.45,0.642 -0.218,1.22 0.605,1.511 0.389,0.138 1.136,-0.488 1.136,-0.951 0,-0.859 -1.25,-1.261 -1.741,-0.56 m -96.65,1.934 c -0.578,0.639 -0.165,1.529 0.71,1.529 0.529,0 1.014,-0.453 1.014,-0.946 0,-0.78 -1.184,-1.18 -1.724,-0.583 m 94.5,0.333 c -0.484,0.535 -0.338,1.148 0.361,1.516 0.495,0.261 1.14,-0.119 1.302,-0.767 0.211,-0.837 -1.064,-1.411 -1.663,-0.749 m -22.147,0.821 c -0.141,0.16 -0.41,0.596 -0.597,0.969 -0.672,1.338 -2.202,2.345 -5.198,3.423 -1.277,0.46 -2.216,1.333 -2.912,2.708 -1.035,2.046 -2.336,2.691 -3.286,1.627 l -0.48,-0.536 -1.274,0.794 c -3.372,2.102 -6.597,1.828 -7.416,-0.63 -0.033,-0.098 -0.422,0.012 -0.907,0.256 -2,1.004 -3.413,0.952 -5.274,-0.196 -2.571,-1.586 -5.583,-0.532 -7.186,2.515 -1.011,1.923 -0.876,2.209 0.641,1.361 2.4,-1.342 3.717,-1.507 6.68,-0.835 2.293,0.521 3.497,0.535 4.609,0.057 l 0.841,-0.362 0.523,0.599 c 1.747,1.998 4.564,1.833 8.151,-0.476 l 0.96,-0.618 0.981,0.297 c 2.308,0.699 3.489,0.191 4.84,-2.083 1.3,-2.189 2.798,-3.44 4.763,-3.977 1.643,-0.449 2.225,-1.209 2.36,-3.079 0.123,-1.707 -0.229,-2.486 -0.819,-1.814 m -69.589,1.225 c -0.552,0.205 -0.783,0.925 -0.457,1.422 0.398,0.608 1.525,0.567 1.77,-0.064 0.328,-0.846 -0.47,-1.672 -1.313,-1.358 m 89.053,1.02 c -0.343,0.49 -0.327,0.729 0.074,1.13 0.651,0.651 1.833,0.247 1.833,-0.627 0,-0.859 -1.399,-1.228 -1.907,-0.503 m -86.984,1.768 c -0.566,0.626 -0.121,1.528 0.754,1.528 0.775,0 1.297,-1.106 0.771,-1.633 -0.304,-0.304 -1.211,-0.241 -1.525,0.105 m 84.35,0.208 c -0.34,0.198 -0.4,1.146 -0.092,1.454 0.568,0.568 1.8,0.129 1.8,-0.641 0,-0.806 -0.947,-1.256 -1.708,-0.813 m -81.533,2.191 c -0.349,0.498 -0.326,0.896 0.074,1.296 0.589,0.589 1.505,0.349 1.744,-0.456 0.262,-0.881 -1.287,-1.598 -1.818,-0.84 m 78.778,0.555 c -0.755,0.529 -0.287,1.741 0.673,1.741 0.893,0 1.273,-1.017 0.623,-1.667 -0.4,-0.4 -0.797,-0.423 -1.296,-0.074 m -75.782,1.569 c -0.91,1.006 0.452,2.298 1.412,1.339 0.422,-0.423 0.419,-0.679 -0.012,-1.228 -0.411,-0.521 -0.987,-0.567 -1.4,-0.111 m 72.687,0.81 c -0.893,0.988 0.45,2.303 1.391,1.362 0.374,-0.374 0.408,-0.617 0.171,-1.239 -0.202,-0.531 -1.126,-0.604 -1.562,-0.123 m -69.7,1.271 c -0.638,0.639 -0.464,1.457 0.355,1.663 1.217,0.305 1.745,-1.289 0.622,-1.88 -0.488,-0.257 -0.507,-0.253 -0.977,0.217 m 66.675,0.794 c -1.118,0.636 -0.831,1.869 0.427,1.833 0.693,-0.02 0.989,-0.305 0.989,-0.953 0,-0.79 -0.753,-1.258 -1.416,-0.88 m -64.004,1.029 c -0.349,0.533 -0.274,0.9 0.266,1.303 0.892,0.665 1.924,-0.174 1.447,-1.175 -0.308,-0.645 -1.325,-0.72 -1.713,-0.128 m 60.256,0.982 c -1.039,0.526 -0.676,1.856 0.498,1.823 1.171,-0.034 1.435,-1.293 0.386,-1.845 -0.44,-0.232 -0.378,-0.233 -0.884,0.022 m -57.169,0.619 c -0.922,0.923 0.23,2.321 1.296,1.574 0.719,-0.503 0.256,-1.907 -0.629,-1.907 -0.184,0 -0.484,0.15 -0.667,0.333 m 53.625,0.929 c -0.923,0.501 -0.507,1.794 0.577,1.794 1.05,0 1.359,-1.055 0.505,-1.727 -0.493,-0.387 -0.491,-0.387 -1.082,-0.067 m -50.528,0.723 c -0.733,0.81 0.241,2.041 1.195,1.51 0.623,-0.347 0.719,-1.185 0.18,-1.562 -0.507,-0.356 -1.024,-0.336 -1.375,0.052 m 47.107,0.774 c -0.487,0.342 -0.517,1.317 -0.048,1.568 0.823,0.441 1.677,0.027 1.677,-0.813 0,-0.871 -0.881,-1.279 -1.629,-0.755 m -43.928,0.212 c -0.58,0.641 -0.087,1.571 0.833,1.571 0.412,0 1.058,-0.533 1.058,-0.871 0,-0.774 -1.366,-1.279 -1.891,-0.7 m 39.833,1 c -0.926,1.024 0.579,2.341 1.558,1.362 0.44,-0.44 0.42,-0.761 -0.076,-1.257 -0.485,-0.485 -1.098,-0.528 -1.482,-0.105 m -35.975,0.154 c -0.695,0.81 -0.375,1.708 0.61,1.708 1.023,0 1.432,-1.04 0.65,-1.654 -0.536,-0.422 -0.929,-0.439 -1.26,-0.054 m 3.338,0.941 c -0.6,0.299 -0.557,1.411 0.07,1.761 0.411,0.23 0.505,0.23 0.916,0.001 1.156,-0.644 0.2,-2.353 -0.986,-1.762 m 29.201,0.132 c -0.967,1.038 0.559,2.251 1.566,1.245 0.531,-0.531 0.533,-0.686 0.019,-1.201 -0.507,-0.506 -1.138,-0.524 -1.585,-0.044 m -26.006,0.469 c -0.465,0.465 -0.422,1.072 0.105,1.488 1.079,0.848 2.287,-0.445 1.319,-1.413 -0.496,-0.496 -0.978,-0.521 -1.424,-0.075 m 21.839,0.364 c -0.464,0.499 -0.426,1.043 0.104,1.46 0.503,0.396 0.98,0.332 1.432,-0.191 0.811,-0.938 -0.689,-2.177 -1.536,-1.269 M 192,195.5 c -0.634,0.634 -0.273,1.667 0.582,1.667 0.974,0 1.403,-0.556 1.013,-1.312 -0.392,-0.758 -1.046,-0.904 -1.595,-0.355 m 14.224,0.094 c -0.623,0.623 -0.494,1.248 0.321,1.558 0.991,0.377 1.795,-0.524 1.234,-1.382 -0.38,-0.579 -1.073,-0.657 -1.555,-0.176 m -10.724,0.073 c -0.373,0.372 -0.444,1.205 -0.125,1.456 0.73,0.575 1.794,0.224 1.789,-0.591 -0.006,-1.001 -1.007,-1.522 -1.664,-0.865 m 6.942,0.304 c -0.386,0.427 -0.359,1.306 0.047,1.523 0.812,0.435 1.678,-0.015 1.678,-0.873 0,-0.816 -1.174,-1.258 -1.725,-0.65 m -3.39,-0.007 c -0.32,0.204 -0.521,0.921 -0.371,1.323 0.313,0.837 1.848,0.583 1.954,-0.324 0.091,-0.781 -0.921,-1.42 -1.583,-0.999"
       stroke="none"
       fill="#fbfbfa"
       fill-rule="evenodd"
       style="fill:#ffffff;fill-opacity:1" />
    <path
       id="path2"
       d="M 0,133.25 V 266.5 H 200 400 V 133.25 0 H 200 0 V 133.25 M 205.417,66.842 c 28.417,2.441 52.079,22.426 59.087,49.906 2.686,10.531 2.68,22.691 -0.016,33.085 -6.603,25.451 -27.416,44.665 -53.155,49.072 -9.127,1.563 -19.519,1.134 -28.316,-1.167 -21.714,-5.68 -39.326,-22.171 -46.356,-43.405 -12.225,-36.929 9.393,-76.271 47.114,-85.74 3.464,-0.869 6.54,-1.36 11.392,-1.818 1.426,-0.135 8.437,-0.089 10.25,0.067"
       stroke="none"
       fill="#14642c"
       fill-rule="evenodd"
       style="fill:#0b6623;fill-opacity:1" />
  </g>
</svg>
