<svg xmlns="http://www.w3.org/2000/svg" viewBox="0 0 32 32" width="32" height="32">
  <defs>
    <radialGradient id="mapPaperFav" cx="50%" cy="50%">
      <stop offset="0%" style="stop-color:#fff0d0;stop-opacity:1" />
      <stop offset="100%" style="stop-color:#fff0a0;stop-opacity:1" />
    </radialGradient>
    
    <linearGradient id="countryGradientFav" x1="0%" y1="0%" x2="0%" y2="100%">
      <stop offset="0%" style="stop-color:#d4c4a8;stop-opacity:1" />
      <stop offset="100%" style="stop-color:#c4b498;stop-opacity:1" />
    </linearGradient>
    
    <linearGradient id="flagBorderFav" x1="0%" y1="0%" x2="100%" y2="0%">
      <stop offset="0%" style="stop-color:#E40303;stop-opacity:1" />
      <stop offset="16.67%" style="stop-color:#FF8C00;stop-opacity:1" />
      <stop offset="33.33%" style="stop-color:#FFED00;stop-opacity:1" />
      <stop offset="50%" style="stop-color:#008026;stop-opacity:1" />
      <stop offset="66.67%" style="stop-color:#004DFF;stop-opacity:1" />
      <stop offset="83.33%" style="stop-color:#750787;stop-opacity:1" />
      <stop offset="100%" style="stop-color:#E40303;stop-opacity:1" />
    </linearGradient>
  </defs>
  
  <!-- Circular border -->
  <circle cx="16" cy="16" r="15" fill="none" stroke="url(#flagBorderFav)" stroke-width="2" stroke-linecap="round"/>
  
  <!-- Warm cream background -->
  <circle cx="16" cy="16" r="14" fill="url(#mapPaperFav)" stroke="#e8d8b8" stroke-width="0.5"/>
  
  <!-- Country shape (simplified) -->
  <g transform="translate(16, 16)">
    <path d="M -5.1,-4.5 
             C -5.1,-4.5 -6.4,-3.3 -6.4,-2.3 
             C -6.4,-1.2 -5.1,-0.8 -4.3,-1.2 
             C -3.7,-1.5 -3.4,-2.3 -3.1,-2.7 
             C -2.6,-3 -2.1,-3.3 -1.5,-3.6 
             C -0.9,-3.9 0,-4.1 0.6,-3.9 
             C 1.2,-3.8 1.8,-3.5 2.4,-3 
             C 3,-2.6 3.4,-2 3.6,-1.2 
             C 4.1,-0.8 4.5,-1.2 4.8,-1.8 
             C 5.1,-2.4 5.2,-3 5.1,-3.6 
             C 5,-4.2 4.5,-4.5 4.1,-4.2 
             C 3.7,-3.9 3.3,-3.6 2.9,-3.3 
             C 2.5,-3 2.1,-2.9 1.5,-2.9 
             C 0.9,-2.9 0.3,-3 -0.3,-3.3 
             C -0.9,-3.6 -1.5,-3.9 -2.1,-4.2 
             C -2.7,-4.5 -3.3,-4.8 -5.1,-4.5 Z" 
          fill="url(#countryGradientFav)" stroke="#8b7355" stroke-width="0.8" stroke-linejoin="round"/>
    
    <!-- Simple coastline -->
    <path d="M -5.1,-4 Q -4.5,-4.5 -4,-4.2 Q -3.5,-4.8 -3,-4.5 Q -2.5,-5.1 -2,-4.8 Q -1.5,-5.4 -1,-5.1 Q -0.5,-5.7 0,-5.6 Q 0.5,-5.7 1,-5.1 Q 1.5,-5.4 2,-4.8 Q 2.5,-5.1 3,-4.5 Q 3.5,-4.8 4,-4.2 Q 4.5,-4.5 5.1,-4" 
          fill="none" stroke="#8b7355" stroke-width="0.6" stroke-linecap="round"/>
    
    <!-- Marker -->
    <circle cx="0" cy="1.3" r="0.4" fill="#8b5a3c"/>
  </g>
</svg>
